<svg width="16" height="16" viewBox="0 0 16 16" fill="none" xmlns="http://www.w3.org/2000/svg">
<path fill-rule="evenodd" clip-rule="evenodd" d="M2.2398 3.78234C2.51489 2.47794 3.66512 1.54388 4.99821 1.54234L5.01741 1.52954C6.3412 1.52907 7.4866 2.45071 7.76941 3.74394H7.83981C8.81183 3.74394 9.5998 4.53192 9.5998 5.50394V5.87514H12.1598C12.6198 5.89212 13.0544 6.08991 13.3694 6.42554L14.0414 7.06554C14.373 7.39361 14.5597 7.84067 14.5598 8.30714V11.7631C14.5598 12.7352 13.7718 13.5231 12.7998 13.5231H11.923C11.7179 14.1888 11.1027 14.6429 10.4062 14.6429C9.70968 14.6429 9.09455 14.1888 8.88941 13.5231H5.81101C5.78121 13.5261 5.7512 13.5261 5.72141 13.5231C5.54863 14.2348 4.91136 14.7359 4.17901 14.7359C3.44665 14.7359 2.80938 14.2348 2.6366 13.5231H1.2798C1.01615 13.5197 0.803252 13.3068 0.799805 13.0431V6.14394C0.799805 4.42234 1.5998 3.91674 2.2398 3.78234ZM10.4062 12.2751C10.7388 12.2772 11.0316 12.4949 11.1294 12.8127C11.1548 12.8954 11.1937 12.9733 11.2446 13.0431C11.1926 13.11 11.1535 13.1859 11.1294 13.2671C11.0334 13.5863 10.7395 13.8048 10.4062 13.8048C10.0729 13.8048 9.779 13.5863 9.68301 13.2671C9.65893 13.1859 9.61985 13.11 9.56781 13.0431C9.6187 12.9733 9.65763 12.8954 9.68301 12.8127C9.78082 12.4949 10.0736 12.2772 10.4062 12.2751ZM4.17901 12.3391C4.50346 12.3432 4.79038 12.5507 4.89581 12.8575C4.92132 12.9342 4.96033 13.0058 5.01101 13.0687C4.96719 13.1378 4.93478 13.2134 4.91501 13.2927C4.83616 13.6357 4.5309 13.8787 4.17901 13.8787C3.82711 13.8787 3.52185 13.6357 3.44301 13.2927C3.42565 13.2126 3.39306 13.1366 3.34701 13.0687C3.39295 13.0005 3.43156 12.9275 3.46221 12.8511C3.56764 12.5443 3.85455 12.3368 4.17901 12.3327V12.3391ZM4.9982 6.22714C3.96963 6.22714 3.1358 5.39332 3.1358 4.36474C3.1358 3.33617 3.96963 2.50234 4.9982 2.50234C6.02678 2.50234 6.8606 3.33617 6.8606 4.36474C6.8606 4.85868 6.66439 5.33239 6.31512 5.68166C5.96585 6.03093 5.49214 6.22714 4.9982 6.22714ZM7.78861 4.69754C7.62327 6.11437 6.42464 7.18379 4.99821 7.18714C3.60957 7.18122 2.43157 6.16607 2.2206 4.79354C1.9838 4.92794 1.7598 5.26714 1.7598 6.14394V12.5631H2.5598C2.59814 12.5601 2.63667 12.5601 2.675 12.5631C2.89264 11.9177 3.49785 11.4831 4.179 11.4831C4.86016 11.4831 5.46537 11.9177 5.68301 12.5631C5.72562 12.56 5.76839 12.56 5.81101 12.5631H8.88941C9.09455 11.8975 9.70968 11.4434 10.4062 11.4434C11.1027 11.4434 11.7179 11.8975 11.923 12.5631H12.7998C13.0171 12.5615 13.2245 12.4723 13.3751 12.3157C13.5257 12.1591 13.6067 11.9483 13.5998 11.7311V9.01114H10.8798C10.6147 9.01114 10.3998 8.79624 10.3998 8.53114C10.3998 8.26605 10.6147 8.05114 10.8798 8.05114H13.5678C13.5349 7.92311 13.4686 7.80608 13.3758 7.71194L12.7038 7.07194C12.556 6.91979 12.3527 6.8343 12.1406 6.83514H9.58061V9.55514C9.58061 9.82024 9.3657 10.0351 9.10061 10.0351C8.83551 10.0351 8.62061 9.82024 8.62061 9.55514V5.50394C8.62231 5.29066 8.53878 5.08553 8.38857 4.93411C8.23835 4.7827 8.03389 4.69754 7.82061 4.69754H7.78861Z" fill="#939393"/>
<path d="M4.26861 3.14874C4.14135 3.14885 4.01934 3.1995 3.92941 3.28954C3.83792 3.37869 3.78632 3.50101 3.78632 3.62874C3.78632 3.75648 3.83792 3.8788 3.92941 3.96794L4.51821 4.56314V5.10074C4.51821 5.36584 4.73311 5.58074 4.99821 5.58074C5.2633 5.58074 5.47821 5.36584 5.47821 5.10074V4.46074C5.48088 4.25644 5.39996 4.05992 5.25421 3.91674L4.61421 3.27674C4.52278 3.18895 4.40172 3.1387 4.27501 3.13594L4.26861 3.14874Z" fill="#939393"/>
</svg>
