<svg width="16" height="16" viewBox="0 0 16 16" fill="none" xmlns="http://www.w3.org/2000/svg">
<path fill-rule="evenodd" clip-rule="evenodd" d="M14.0414 5.79206L13.3694 5.12006C13.0492 4.79621 12.6152 4.6102 12.1598 4.60166H9.5998V4.23046C9.5998 3.25844 8.81183 2.47046 7.83981 2.47046H2.5598C2.29471 2.47046 2.0798 2.68536 2.0798 2.95046C2.0798 3.21556 2.29471 3.43046 2.5598 3.43046H7.82061C8.26243 3.43046 8.62061 3.78863 8.62061 4.23046V8.28166C8.62061 8.54676 8.83551 8.76166 9.10061 8.76166C9.3657 8.76166 9.58061 8.54676 9.58061 8.28166V5.56166H12.1406C12.3527 5.56082 12.556 5.64631 12.7038 5.79846L13.3758 6.43846C13.4675 6.53348 13.5335 6.65018 13.5678 6.77766H10.8798C10.6147 6.77766 10.3998 6.99256 10.3998 7.25766C10.3998 7.52276 10.6147 7.73766 10.8798 7.73766H13.5998V10.4577C13.6085 10.6753 13.5281 10.8871 13.3771 11.0441C13.2261 11.2012 13.0176 11.2898 12.7998 11.2897H12.0894C11.9319 10.5512 11.2796 10.0234 10.5246 10.0234C9.76958 10.0234 9.11731 10.5512 8.95981 11.2897H5.5422C5.36995 10.5264 4.66714 10.0025 3.88648 10.0555C3.10582 10.1085 2.48023 10.7225 2.41267 11.502C2.34511 12.2816 2.85574 12.994 3.61565 13.1805C4.37555 13.367 5.158 12.9719 5.45901 12.2497H9.04941C9.29887 12.8437 9.88031 13.2302 10.5246 13.2302C11.1689 13.2302 11.7503 12.8437 11.9998 12.2497H12.7998C13.7718 12.2497 14.5598 11.4617 14.5598 10.4897V7.04006C14.5607 6.57151 14.374 6.1221 14.0414 5.79206ZM3.98061 12.1473C3.76574 12.1577 3.56624 12.036 3.47725 11.8402C3.38826 11.6443 3.4278 11.414 3.57701 11.2591C3.72623 11.1041 3.9549 11.0559 4.15396 11.1374C4.35303 11.219 4.48217 11.4138 4.4798 11.6289C4.48 11.9078 4.25938 12.1369 3.98061 12.1473ZM10.036 11.8218C10.1168 12.0187 10.3086 12.1472 10.5214 12.1473C10.8088 12.1473 11.0427 11.9162 11.0462 11.6289C11.0488 11.416 10.9226 11.2227 10.7267 11.1395C10.5308 11.0562 10.3041 11.0995 10.1526 11.2491C10.0012 11.3987 9.95513 11.6249 10.036 11.8218Z" fill="#939393"/>
<path d="M6.87981 6.08006C6.87636 5.8164 6.66346 5.60351 6.39981 5.60006H1.2798C1.01471 5.60006 0.799805 5.81496 0.799805 6.08006C0.799805 6.34516 1.01471 6.56006 1.2798 6.56006H6.39981C6.66346 6.55661 6.87636 6.34371 6.87981 6.08006Z" fill="#939393"/>
<path d="M6.39981 7.52006H3.1998C2.93471 7.52006 2.7198 7.73496 2.7198 8.00006C2.7198 8.26516 2.93471 8.48006 3.1998 8.48006H6.39981C6.6649 8.48006 6.87981 8.26516 6.87981 8.00006C6.87981 7.73496 6.6649 7.52006 6.39981 7.52006Z" fill="#939393"/>
</svg>
