<svg width="15" height="16" viewBox="0 0 15 16" fill="none" xmlns="http://www.w3.org/2000/svg">
<path d="M5.39765 5.24817C5.21325 5.07635 4.9259 5.08142 4.74768 5.25964C4.56945 5.43786 4.56438 5.72521 4.73621 5.90961L7.09493 8.26833V11.1949C7.09493 11.4534 7.30446 11.6629 7.56293 11.6629C7.8214 11.6629 8.03093 11.4534 8.03093 11.1949V8.07489C8.03082 7.95081 7.98144 7.83185 7.89365 7.74417L5.39765 5.24817Z" fill="black"/>
<path fill-rule="evenodd" clip-rule="evenodd" d="M6.24005 1.76001H8.88581C10.2098 1.76001 11.4795 2.28595 12.4157 3.22213C13.3519 4.15831 13.8778 5.42805 13.8778 6.75201V9.39777C13.8778 12.1548 11.6428 14.3898 8.88581 14.3898H6.24005C3.48304 14.3898 1.24805 12.1548 1.24805 9.39777V6.75201C1.24805 3.995 3.48304 1.76001 6.24005 1.76001ZM8.88581 13.4538C11.1244 13.4503 12.9384 11.6364 12.9418 9.39777V6.75201C12.9384 4.51337 11.1244 2.69945 8.88581 2.69601H6.24005C4.00141 2.69945 2.18748 4.51337 2.18405 6.75201V9.39777C2.18748 11.6364 4.00141 13.4503 6.24005 13.4538H8.88581Z" fill="black"/>
</svg>
