<svg width="15" height="16" viewBox="0 0 15 16" fill="none" xmlns="http://www.w3.org/2000/svg">
<path d="M5.1902 5.354C5.01289 5.18878 4.73659 5.19366 4.56522 5.36503C4.39386 5.53639 4.38898 5.81269 4.5542 5.99L6.8222 8.258V11.072C6.8222 11.3205 7.02367 11.522 7.2722 11.522C7.52072 11.522 7.7222 11.3205 7.7222 11.072V8.072C7.72209 7.95269 7.67461 7.83831 7.5902 7.754L5.1902 5.354Z" fill="#939393"/>
<path fill-rule="evenodd" clip-rule="evenodd" d="M6.0002 2H8.5442C9.81723 2 11.0381 2.50571 11.9383 3.40589C12.8385 4.30606 13.3442 5.52696 13.3442 6.8V9.344C13.3442 11.995 11.1952 14.144 8.5442 14.144H6.0002C3.34923 14.144 1.2002 11.995 1.2002 9.344V6.8C1.2002 4.14903 3.34923 2 6.0002 2ZM8.5442 13.244C10.6967 13.2407 12.4409 11.4965 12.4442 9.344V6.8C12.4409 4.64746 10.6967 2.9033 8.5442 2.9H6.0002C3.84766 2.9033 2.1035 4.64746 2.1002 6.8V9.344C2.1035 11.4965 3.84766 13.2407 6.0002 13.244H8.5442Z" fill="#939393"/>
</svg>
