<svg width="24" height="25" viewBox="0 0 24 25" fill="none" xmlns="http://www.w3.org/2000/svg">
<path fill-rule="evenodd" clip-rule="evenodd" d="M19.2264 9.23077C19.4169 9.69491 19.8683 9.99854 20.37 10C21.0509 10.0055 21.6 10.5591 21.6 11.24V13.38C21.6 14.0648 21.0448 14.62 20.36 14.62C19.8583 14.6215 19.4069 14.9251 19.2164 15.3892C19.026 15.8534 19.134 16.3865 19.49 16.74C19.9676 17.2295 19.9676 18.0105 19.49 18.5L17.99 20C17.5005 20.4776 16.7194 20.4776 16.23 20C16.0042 19.7608 15.6889 19.6267 15.36 19.63C15.0294 19.6273 14.7114 19.7568 14.4767 19.9896C14.242 20.2225 14.11 20.5394 14.11 20.87C14.11 21.5548 13.5548 22.11 12.87 22.11H10.73C10.0452 22.11 9.49 21.5548 9.49 20.87C9.49001 20.5394 9.358 20.2225 9.12328 19.9896C8.88857 19.7568 8.5706 19.6273 8.24 19.63C7.91111 19.6267 7.59576 19.7608 7.37 20C6.88055 20.4776 6.09945 20.4776 5.61 20L4.11 18.5C3.63237 18.0105 3.63237 17.2295 4.11 16.74C4.46605 16.3865 4.57402 15.8534 4.38355 15.3892C4.19308 14.9251 3.7417 14.6215 3.24 14.62C2.91113 14.62 2.59573 14.4894 2.36319 14.2568C2.13064 14.0243 2 13.7089 2 13.38V11.24C2 10.5552 2.55517 10 3.24 10C3.7417 9.99854 4.19308 9.69491 4.38355 9.23077C4.57402 8.76664 4.46605 8.23346 4.11 7.88C3.63237 7.39055 3.63237 6.60945 4.11 6.12L5.61 4.62C6.09945 4.14237 6.88055 4.14237 7.37 4.62C7.59576 4.85919 7.91111 4.99331 8.24 4.99C8.57234 4.99269 8.89185 4.86186 9.12685 4.62685C9.36186 4.39185 9.49269 4.07234 9.49 3.74C9.49 3.05517 10.0452 2.5 10.73 2.5H12.88C13.5648 2.5 14.12 3.05517 14.12 3.74C14.1173 4.07234 14.2481 4.39185 14.4831 4.62685C14.7182 4.86186 15.0377 4.99269 15.37 4.99C15.6989 4.99331 16.0142 4.85919 16.24 4.62C16.7294 4.14237 17.5105 4.14237 18 4.62L19.5 6.12C19.9776 6.60945 19.9776 7.39055 19.5 7.88C19.144 8.23346 19.036 8.76664 19.2264 9.23077ZM17.8 14.81C18.1904 13.8582 19.0843 13.2081 20.11 13.13L20.08 11.49C19.0654 11.401 18.1855 10.7527 17.8 9.81C17.4224 8.86508 17.5953 7.78901 18.25 7.01L17.1 5.86C16.6123 6.26841 15.9961 6.49152 15.36 6.49C13.9429 6.48653 12.7586 5.41035 12.62 4H10.98C10.8458 5.4126 9.65895 6.4912 8.24 6.49C7.6039 6.49152 6.98768 6.26841 6.5 5.86L5.38 7.01C6.02453 7.79496 6.18586 8.87048 5.8 9.81C5.41447 10.7527 4.53459 11.401 3.52 11.49V13.13C4.53459 13.219 5.41447 13.8673 5.8 14.81C6.17764 15.7549 6.0047 16.831 5.35 17.61L6.5 18.76C6.98768 18.3516 7.6039 18.1285 8.24 18.13C9.65715 18.1335 10.8414 19.2096 10.98 20.62H12.62C12.745 19.2029 13.9374 18.1193 15.36 18.13C15.9961 18.1285 16.6123 18.3516 17.1 18.76L18.22 17.61C17.5755 16.825 17.4141 15.7495 17.8 14.81Z" fill="#939393"/>
<path fill-rule="evenodd" clip-rule="evenodd" d="M8.34 12.31C8.34 10.3991 9.88909 8.85 11.8 8.85C12.7176 8.85 13.5977 9.21454 14.2466 9.86341C14.8955 10.5123 15.26 11.3924 15.26 12.31C15.26 14.2209 13.7109 15.77 11.8 15.77C9.88909 15.77 8.34 14.2209 8.34 12.31ZM9.8 12.31C9.8 13.4146 10.6954 14.31 11.8 14.31C12.9046 14.31 13.8 13.4146 13.8 12.31C13.8 11.2054 12.9046 10.31 11.8 10.31C10.6954 10.31 9.8 11.2054 9.8 12.31Z" fill="#939393"/>
</svg>
