<svg width="15" height="15" viewBox="0 0 15 15" fill="none" xmlns="http://www.w3.org/2000/svg">
<path d="M9.9002 4.8961H4.5002C4.25167 4.8961 4.0502 5.09757 4.0502 5.3461C4.0502 5.59463 4.25167 5.7961 4.5002 5.7961H9.9002C10.1487 5.7961 10.3502 5.59463 10.3502 5.3461C10.3502 5.09757 10.1487 4.8961 9.9002 4.8961Z" fill="#939393"/>
<path fill-rule="evenodd" clip-rule="evenodd" d="M10.1342 2.1421H10.2002C11.857 2.1421 13.2002 3.48524 13.2002 5.1421V10.5421C13.2002 12.199 11.857 13.5421 10.2002 13.5421H4.2002C3.40455 13.5421 2.64148 13.226 2.07888 12.6634C1.51627 12.1008 1.2002 11.3377 1.2002 10.5421V5.1421C1.2002 3.48524 2.54334 2.1421 4.2002 2.1421H4.2542V1.0501C4.2542 0.80157 4.45567 0.600098 4.7042 0.600098C4.95272 0.600098 5.1542 0.80157 5.1542 1.0501V2.1421H9.2342V1.0501C9.2342 0.80157 9.43567 0.600098 9.6842 0.600098C9.93272 0.600098 10.1342 0.80157 10.1342 1.0501V2.1421ZM10.2002 12.6421C11.36 12.6421 12.3002 11.7019 12.3002 10.5421V5.1421C12.3002 3.9823 11.36 3.0421 10.2002 3.0421H4.2002C3.0404 3.0421 2.1002 3.9823 2.1002 5.1421V10.5421C2.1002 11.7019 3.0404 12.6421 4.2002 12.6421H10.2002Z" fill="#939393"/>
</svg>
