<svg width="16" height="16" viewBox="0 0 16 16" fill="none" xmlns="http://www.w3.org/2000/svg">
<path fill-rule="evenodd" clip-rule="evenodd" d="M11.1356 2.60476H11.1996C12.9669 2.60476 14.3996 4.03745 14.3996 5.80476V11.5648C14.3996 13.3321 12.9669 14.7648 11.1996 14.7648H4.79961C3.95092 14.7648 3.13698 14.4276 2.53687 13.8275C1.93675 13.2274 1.59961 12.4135 1.59961 11.5648V5.80476C1.59961 4.03745 3.0323 2.60476 4.79961 2.60476H4.86361V1.43996C4.86361 1.17486 5.07851 0.959961 5.34361 0.959961C5.60871 0.959961 5.82361 1.17486 5.82361 1.43996V2.60476H10.1756V1.43996C10.1756 1.17486 10.3905 0.959961 10.6556 0.959961C10.9207 0.959961 11.1356 1.17486 11.1356 1.43996V2.60476ZM5.11961 6.50236H10.8796C11.1447 6.50236 11.3596 6.28746 11.3596 6.02236C11.3596 5.75726 11.1447 5.54236 10.8796 5.54236H5.11961C4.85451 5.54236 4.63961 5.75726 4.63961 6.02236C4.63961 6.28746 4.85451 6.50236 5.11961 6.50236Z" fill="black"/>
</svg>
