<svg width="15" height="15" viewBox="0 0 15 15" fill="none" xmlns="http://www.w3.org/2000/svg">
<path d="M5.1902 4.55395C5.01289 4.38874 4.73659 4.39361 4.56522 4.56498C4.39386 4.73635 4.38898 5.01265 4.5542 5.18995L6.8222 7.45795V10.272C6.8222 10.5205 7.02367 10.722 7.2722 10.722C7.52072 10.722 7.7222 10.5205 7.7222 10.272V7.27195C7.72209 7.15264 7.67461 7.03826 7.5902 6.95395L5.1902 4.55395Z" fill="#939393"/>
<path fill-rule="evenodd" clip-rule="evenodd" d="M6.0002 1.19995H8.5442C9.81723 1.19995 11.0381 1.70566 11.9383 2.60584C12.8385 3.50601 13.3442 4.72691 13.3442 5.99995V8.54395C13.3442 11.1949 11.1952 13.344 8.5442 13.344H6.0002C3.34923 13.344 1.2002 11.1949 1.2002 8.54395V5.99995C1.2002 3.34898 3.34923 1.19995 6.0002 1.19995ZM8.5442 12.444C10.6967 12.4406 12.4409 10.6965 12.4442 8.54395V5.99995C12.4409 3.84741 10.6967 2.10326 8.5442 2.09995H6.0002C3.84766 2.10326 2.1035 3.84741 2.1002 5.99995V8.54395C2.1035 10.6965 3.84766 12.4406 6.0002 12.444H8.5442Z" fill="#939393"/>
</svg>
