<svg width="25" height="25" viewBox="0 0 25 25" fill="none" xmlns="http://www.w3.org/2000/svg">
<path d="M17.25 8.66H8.25C7.83579 8.66 7.5 8.99579 7.5 9.41C7.5 9.82421 7.83579 10.16 8.25 10.16H17.25C17.6642 10.16 18 9.82421 18 9.41C18 8.99579 17.6642 8.66 17.25 8.66Z" fill="#939393"/>
<path fill-rule="evenodd" clip-rule="evenodd" d="M17.64 4.07H17.75C20.5114 4.07 22.75 6.30858 22.75 9.07V18.07C22.75 20.8314 20.5114 23.07 17.75 23.07H7.75C6.42392 23.07 5.15215 22.5432 4.21447 21.6055C3.27678 20.6679 2.75 19.3961 2.75 18.07V9.07C2.75 6.30858 4.98858 4.07 7.75 4.07H7.84V2.25C7.84 1.83579 8.17579 1.5 8.59 1.5C9.00421 1.5 9.34 1.83579 9.34 2.25V4.07H16.14V2.25C16.14 1.83579 16.4758 1.5 16.89 1.5C17.3042 1.5 17.64 1.83579 17.64 2.25V4.07ZM17.75 21.57C19.683 21.57 21.25 20.003 21.25 18.07V9.07C21.25 7.137 19.683 5.57 17.75 5.57H7.75C5.817 5.57 4.25 7.137 4.25 9.07V18.07C4.25 20.003 5.817 21.57 7.75 21.57H17.75Z" fill="#939393"/>
</svg>
