<svg width="29" height="29" viewBox="0 0 29 29" fill="none" xmlns="http://www.w3.org/2000/svg">
<path fill-rule="evenodd" clip-rule="evenodd" d="M23.9256 9.30368C22.2142 5.19412 18.2042 2.51253 13.7525 2.50064C8.95466 2.47538 4.68855 5.54856 3.19296 10.1074C1.69738 14.6663 3.31399 19.6693 7.19441 22.4911C11.0748 25.3128 16.3326 25.3086 20.2085 22.4806L23.6645 25.9366C24.0159 26.2876 24.5851 26.2876 24.9365 25.9366C25.2874 25.5853 25.2874 25.016 24.9365 24.6646L21.5885 21.3166C24.7158 18.1485 25.637 13.4132 23.9256 9.30368ZM22.321 17.1034C20.884 20.5662 17.5016 22.8215 13.7525 22.8166V22.7686C8.66415 22.7622 4.53345 18.6529 4.5005 13.5646C4.49565 9.81553 6.75097 6.4331 10.2138 4.99613C13.6766 3.55916 17.6641 4.35098 20.3151 7.00201C22.9662 9.65304 23.758 13.6406 22.321 17.1034Z" fill="#939393"/>
</svg>
