<svg width="16" height="16" viewBox="0 0 16 16" fill="none" xmlns="http://www.w3.org/2000/svg">
<path d="M10.5598 5.54236H4.79979C4.53469 5.54236 4.31979 5.75726 4.31979 6.02236C4.31979 6.28746 4.53469 6.50236 4.79979 6.50236H10.5598C10.8249 6.50236 11.0398 6.28746 11.0398 6.02236C11.0398 5.75726 10.8249 5.54236 10.5598 5.54236Z" fill="#393939"/>
<path fill-rule="evenodd" clip-rule="evenodd" d="M10.8094 2.60476H10.8798C12.6471 2.60476 14.0798 4.03745 14.0798 5.80476V11.5648C14.0798 13.3321 12.6471 14.7648 10.8798 14.7648H4.47979C3.63109 14.7648 2.81716 14.4276 2.21704 13.8275C1.61693 13.2274 1.27979 12.4135 1.27979 11.5648V5.80476C1.27979 4.03745 2.71247 2.60476 4.47979 2.60476H4.53739V1.43996C4.53739 1.17486 4.75229 0.959961 5.01739 0.959961C5.28248 0.959961 5.49739 1.17486 5.49739 1.43996V2.60476H9.84939V1.43996C9.84939 1.17486 10.0643 0.959961 10.3294 0.959961C10.5945 0.959961 10.8094 1.17486 10.8094 1.43996V2.60476ZM10.8798 13.8048C12.1169 13.8048 13.1198 12.8019 13.1198 11.5648V5.80476C13.1198 4.56764 12.1169 3.56476 10.8798 3.56476H4.47979C3.24267 3.56476 2.23979 4.56764 2.23979 5.80476V11.5648C2.23979 12.8019 3.24267 13.8048 4.47979 13.8048H10.8798Z" fill="#393939"/>
</svg>
