<svg width="15" height="16" viewBox="0 0 15 16" fill="none" xmlns="http://www.w3.org/2000/svg">
<path d="M9.9002 5.69615H4.5002C4.25167 5.69615 4.0502 5.89762 4.0502 6.14615C4.0502 6.39467 4.25167 6.59615 4.5002 6.59615H9.9002C10.1487 6.59615 10.3502 6.39467 10.3502 6.14615C10.3502 5.89762 10.1487 5.69615 9.9002 5.69615Z" fill="#939393"/>
<path fill-rule="evenodd" clip-rule="evenodd" d="M10.1342 2.94215H10.2002C11.857 2.94215 13.2002 4.28529 13.2002 5.94215V11.3421C13.2002 12.999 11.857 14.3421 10.2002 14.3421H4.2002C3.40455 14.3421 2.64148 14.0261 2.07888 13.4635C1.51627 12.9009 1.2002 12.1378 1.2002 11.3421V5.94215C1.2002 4.28529 2.54334 2.94215 4.2002 2.94215H4.2542V1.85015C4.2542 1.60162 4.45567 1.40015 4.7042 1.40015C4.95272 1.40015 5.1542 1.60162 5.1542 1.85015V2.94215H9.2342V1.85015C9.2342 1.60162 9.43567 1.40015 9.6842 1.40015C9.93272 1.40015 10.1342 1.60162 10.1342 1.85015V2.94215ZM10.2002 13.4421C11.36 13.4421 12.3002 12.5019 12.3002 11.3421V5.94215C12.3002 4.78235 11.36 3.84215 10.2002 3.84215H4.2002C3.0404 3.84215 2.1002 4.78235 2.1002 5.94215V11.3421C2.1002 12.5019 3.0404 13.4421 4.2002 13.4421H10.2002Z" fill="#939393"/>
</svg>
