<svg width="25" height="25" viewBox="0 0 25 25" fill="none" xmlns="http://www.w3.org/2000/svg">
<path fill-rule="evenodd" clip-rule="evenodd" d="M6.49 2.50222H16.99C18.3618 2.46192 19.6928 2.97191 20.6865 3.9186C21.6801 4.86529 22.2539 6.17004 22.28 7.54222V15.1322C22.1983 17.9531 19.8616 20.1827 17.04 20.1322H15.42C15.0128 20.1333 14.6275 20.3168 14.37 20.6322L12.84 22.5822C12.5837 22.8994 12.1978 23.0837 11.79 23.0837C11.3822 23.0837 10.9963 22.8994 10.74 22.5822L9.16 20.5922C8.9025 20.2768 8.5172 20.0933 8.11 20.0922H6.49C3.66843 20.1427 1.33174 17.9131 1.25 15.0922V7.50222C1.32637 4.67899 3.6663 2.44624 6.49 2.50222ZM17 18.6322C19.0085 18.6827 20.6801 17.1004 20.74 15.0922V7.54222C20.6801 5.52999 19.0023 3.94617 16.99 4.00222H6.49C4.47766 3.94617 2.79989 5.52999 2.74 7.54222V15.0922C2.79989 17.1044 4.47766 18.6883 6.49 18.6322H8.11C8.9771 18.6324 9.7973 19.0259 10.34 19.7022L11.74 21.4822L13.14 19.7022C13.6827 19.0259 14.5029 18.6324 15.37 18.6322H17Z" fill="#939393"/>
<path d="M7.99 9.46222C7.57579 9.46222 7.24 9.79801 7.24 10.2122V12.6122C7.24 13.0264 7.57579 13.3622 7.99 13.3622C8.40421 13.3622 8.74 13.0264 8.74 12.6122V10.2122C8.74 9.79801 8.40421 9.46222 7.99 9.46222Z" fill="#939393"/>
<path d="M11.74 9.46222C11.3258 9.46222 10.99 9.79801 10.99 10.2122V12.6122C10.99 13.0264 11.3258 13.3622 11.74 13.3622C12.1542 13.3622 12.49 13.0264 12.49 12.6122V10.2122C12.49 9.79801 12.1542 9.46222 11.74 9.46222Z" fill="#939393"/>
<path d="M15.49 9.46222C15.0758 9.46222 14.74 9.79801 14.74 10.2122V12.6122C14.74 13.0264 15.0758 13.3622 15.49 13.3622C15.9042 13.3622 16.24 13.0264 16.24 12.6122V10.2122C16.24 9.79801 15.9042 9.46222 15.49 9.46222Z" fill="#939393"/>
</svg>
