<svg width="16" height="16" viewBox="0 0 16 16" fill="none" xmlns="http://www.w3.org/2000/svg">
<path d="M10.547 3.03409L7.00778 9.22929C6.93971 9.34716 6.93912 9.49225 7.00622 9.61066C7.07332 9.72908 7.19809 9.80312 7.33418 9.8053H9.35018C9.7708 9.8053 10.1118 10.1463 10.1118 10.5669V13.1269C10.1123 13.2961 10.2234 13.445 10.3854 13.4936C10.5475 13.5423 10.7223 13.4791 10.8158 13.3381L14.2974 8.10929C14.3755 7.99346 14.3833 7.84393 14.3176 7.72059C14.252 7.59725 14.1235 7.52028 13.9838 7.52049H11.9934C11.5692 7.52049 11.2254 7.17665 11.2254 6.75249V3.20689C11.2047 3.05444 11.0935 2.92981 10.9444 2.89183C10.7953 2.85385 10.6381 2.91013 10.547 3.03409Z" fill="white"/>
<path d="M5.59979 5.5109H2.52779C2.26269 5.5109 2.04779 5.29599 2.04779 5.03089C2.04779 4.7658 2.26269 4.55089 2.52779 4.55089H5.59979C5.86488 4.55089 6.07979 4.7658 6.07979 5.03089C6.07979 5.29599 5.86488 5.5109 5.59979 5.5109Z" fill="white"/>
<path d="M4.83179 8.53809H1.75979C1.5883 8.53809 1.42984 8.44661 1.34409 8.29809C1.25835 8.14958 1.25835 7.96661 1.34409 7.81809C1.42984 7.66958 1.5883 7.57809 1.75979 7.57809H4.83179C5.09688 7.57809 5.31179 7.793 5.31179 8.05809C5.31179 8.32319 5.09688 8.53809 4.83179 8.53809Z" fill="white"/>
<path d="M5.59979 12.2309H2.52779C2.26269 12.2309 2.04779 12.016 2.04779 11.7509C2.04779 11.4858 2.26269 11.2709 2.52779 11.2709H5.59979C5.86488 11.2709 6.07979 11.4858 6.07979 11.7509C6.07979 12.016 5.86488 12.2309 5.59979 12.2309Z" fill="white"/>
</svg>
