<svg width="24" height="24" viewBox="0 0 24 24" fill="none" xmlns="http://www.w3.org/2000/svg">
<path fill-rule="evenodd" clip-rule="evenodd" d="M12 2.0004C8.66601 1.97686 5.89667 4.56663 5.69698 7.89472C5.4973 11.2228 7.93711 14.1251 11.25 14.5004V18.8004C11.25 19.2146 11.5858 19.5504 12 19.5504C12.4142 19.5504 12.75 19.2146 12.75 18.8004V14.5004C16.0629 14.1251 18.5027 11.2228 18.303 7.89472C18.1033 4.56663 15.334 1.97686 12 2.0004ZM11.35 5.4704C10.1996 5.47039 9.2655 6.40003 9.26 7.5504C9.26 7.96462 8.92421 8.3004 8.51 8.3004C8.09579 8.3004 7.76 7.96462 7.76 7.5504C7.76551 5.57161 9.3712 3.9704 11.35 3.9704C11.7642 3.9704 12.1 4.30619 12.1 4.7204C12.1 5.13462 11.7642 5.4704 11.35 5.4704Z" fill="white"/>
<path d="M15.82 15.7904C16.0108 15.4299 16.4521 15.2842 16.82 15.4604C18.0479 15.9333 18.8956 17.0687 19 18.3804C19 20.5904 16 22.2604 12 22.2604C8 22.2604 5 20.5904 5 18.3804C5.12274 17.0874 5.96731 15.9755 7.18 15.5104C7.55003 15.3226 8.00222 15.4704 8.19 15.8404C8.37778 16.2104 8.23003 16.6626 7.86 16.8504C6.98 17.3004 6.48 17.8604 6.48 18.3804C6.48 19.4604 8.85 20.7004 12.01 20.7004C15.17 20.7004 17.53 19.4504 17.53 18.3204C17.53 17.7904 17.03 17.2404 16.15 16.7904C15.7851 16.6033 15.6382 16.1579 15.82 15.7904Z" fill="white"/>
</svg>
