<svg width="16" height="16" viewBox="0 0 16 16" fill="none" xmlns="http://www.w3.org/2000/svg">
<path fill-rule="evenodd" clip-rule="evenodd" d="M2.47711 2.23975H4.71711C5.5124 2.23975 6.15711 2.88446 6.15711 3.67975V5.91975C6.15711 6.71504 5.5124 7.35975 4.71711 7.35975H2.47711C1.68182 7.35975 1.03711 6.71504 1.03711 5.91975V3.67975C1.03711 2.88446 1.68182 2.23975 2.47711 2.23975ZM4.71711 6.39975C4.98221 6.39975 5.19711 6.18484 5.19711 5.91975V3.67975C5.19711 3.41465 4.98221 3.19975 4.71711 3.19975H2.47711C2.21345 3.20319 2.00056 3.41609 1.99711 3.67975V5.91975C2.00056 6.1834 2.21345 6.3963 2.47711 6.39975H4.71711Z" fill="black" fill-opacity="0.6"/>
<path d="M8.71711 4.63975H11.9171C12.1822 4.63975 12.3971 4.42484 12.3971 4.15975C12.3971 3.89465 12.1822 3.67975 11.9171 3.67975H8.71711C8.45201 3.67975 8.23711 3.89465 8.23711 4.15975C8.23711 4.42484 8.45201 4.63975 8.71711 4.63975Z" fill="black" fill-opacity="0.6"/>
<path d="M8.71711 6.55975H13.8371C14.1022 6.55975 14.3171 6.34484 14.3171 6.07975C14.3171 5.81465 14.1022 5.59975 13.8371 5.59975H8.71711C8.45201 5.59975 8.23711 5.81465 8.23711 6.07975C8.23711 6.34484 8.45201 6.55975 8.71711 6.55975Z" fill="black" fill-opacity="0.6"/>
<path fill-rule="evenodd" clip-rule="evenodd" d="M2.47711 8.63975H4.71711C5.5124 8.63975 6.15711 9.28446 6.15711 10.0797V12.3197C6.15711 12.7017 6.0054 13.0679 5.73534 13.338C5.46529 13.608 5.09902 13.7597 4.71711 13.7597H2.47711C1.68182 13.7597 1.03711 13.115 1.03711 12.3197V10.0797C1.03711 9.28446 1.68182 8.63975 2.47711 8.63975ZM4.71711 12.7997C4.98221 12.7997 5.19711 12.5848 5.19711 12.3197V10.0797C5.19711 9.81465 4.98221 9.59975 4.71711 9.59975H2.47711C2.21345 9.60319 2.00056 9.81609 1.99711 10.0797V12.3197C2.00056 12.5834 2.21345 12.7963 2.47711 12.7997H4.71711Z" fill="black" fill-opacity="0.6"/>
<path d="M8.71711 11.0397H11.9171C12.1822 11.0397 12.3971 10.8248 12.3971 10.5597C12.3971 10.2947 12.1822 10.0797 11.9171 10.0797H8.71711C8.45201 10.0797 8.23711 10.2947 8.23711 10.5597C8.23711 10.8248 8.45201 11.0397 8.71711 11.0397Z" fill="black" fill-opacity="0.6"/>
<path d="M13.8371 11.9997H8.71711C8.45201 11.9997 8.23711 12.2147 8.23711 12.4797C8.23711 12.7448 8.45201 12.9597 8.71711 12.9597H13.8371C14.1022 12.9597 14.3171 12.7448 14.3171 12.4797C14.3171 12.2147 14.1022 11.9997 13.8371 11.9997Z" fill="black" fill-opacity="0.6"/>
</svg>
