<svg width="25" height="25" viewBox="0 0 25 25" fill="none" xmlns="http://www.w3.org/2000/svg">
<path fill-rule="evenodd" clip-rule="evenodd" d="M4.37012 3.5H7.87012C9.11276 3.5 10.1201 4.50736 10.1201 5.75V9.25C10.1201 10.4926 9.11276 11.5 7.87012 11.5H4.37012C3.12748 11.5 2.12012 10.4926 2.12012 9.25V5.75C2.12012 4.50736 3.12748 3.5 4.37012 3.5ZM7.87012 10C8.28433 10 8.62012 9.66421 8.62012 9.25V5.75C8.62012 5.33579 8.28433 5 7.87012 5H4.37012C3.95816 5.00539 3.6255 5.33804 3.62012 5.75V9.25C3.6255 9.66196 3.95816 9.99461 4.37012 10H7.87012Z" fill="#939393"/>
<path d="M14.1201 7.25H19.1201C19.5343 7.25 19.8701 6.91421 19.8701 6.5C19.8701 6.08579 19.5343 5.75 19.1201 5.75H14.1201C13.7059 5.75 13.3701 6.08579 13.3701 6.5C13.3701 6.91421 13.7059 7.25 14.1201 7.25Z" fill="#939393"/>
<path d="M14.1201 10.25H22.1201C22.5343 10.25 22.8701 9.91421 22.8701 9.5C22.8701 9.08579 22.5343 8.75 22.1201 8.75H14.1201C13.7059 8.75 13.3701 9.08579 13.3701 9.5C13.3701 9.91421 13.7059 10.25 14.1201 10.25Z" fill="#939393"/>
<path fill-rule="evenodd" clip-rule="evenodd" d="M4.37012 13.5H7.87012C9.11276 13.5 10.1201 14.5074 10.1201 15.75V19.25C10.1201 19.8467 9.88306 20.419 9.46111 20.841C9.03915 21.2629 8.46685 21.5 7.87012 21.5H4.37012C3.12748 21.5 2.12012 20.4926 2.12012 19.25V15.75C2.12012 14.5074 3.12748 13.5 4.37012 13.5ZM7.87012 20C8.28433 20 8.62012 19.6642 8.62012 19.25V15.75C8.62012 15.3358 8.28433 15 7.87012 15H4.37012C3.95816 15.0054 3.6255 15.338 3.62012 15.75V19.25C3.6255 19.662 3.95816 19.9946 4.37012 20H7.87012Z" fill="#939393"/>
<path d="M14.1201 17.25H19.1201C19.5343 17.25 19.8701 16.9142 19.8701 16.5C19.8701 16.0858 19.5343 15.75 19.1201 15.75H14.1201C13.7059 15.75 13.3701 16.0858 13.3701 16.5C13.3701 16.9142 13.7059 17.25 14.1201 17.25Z" fill="#939393"/>
<path d="M22.1201 18.75H14.1201C13.7059 18.75 13.3701 19.0858 13.3701 19.5C13.3701 19.9142 13.7059 20.25 14.1201 20.25H22.1201C22.5343 20.25 22.8701 19.9142 22.8701 19.5C22.8701 19.0858 22.5343 18.75 22.1201 18.75Z" fill="#939393"/>
</svg>
