<svg width="34" height="34" viewBox="0 0 34 34" fill="none" xmlns="http://www.w3.org/2000/svg">
<path fill-rule="evenodd" clip-rule="evenodd" d="M29.0801 14.9982L15.3179 6.85993C13.4888 5.77826 11.3203 7.60826 12.0792 9.59318L13.9538 14.4966C14.3381 15.502 14.9798 16.3616 15.7904 17.0076C14.9881 17.6639 14.3574 18.5317 13.986 19.5418L12.1741 24.4688C11.4407 26.4633 13.6324 28.2654 15.4475 27.1605L29.1047 18.8471C30.552 17.9662 30.5385 15.8606 29.0801 14.9982ZM15.8219 13.7825C16.1895 14.7439 16.9129 15.504 17.8154 15.9268C18.1564 16.0866 18.5231 16.1982 18.9057 16.2543C18.959 16.2621 19.0126 16.2688 19.0665 16.2745L21.9816 16.5795C22.4456 16.6281 22.4499 17.3021 21.9866 17.3566L19.0756 17.6989C19.0218 17.7052 18.9682 17.7126 18.9151 17.7211C18.5332 17.7821 18.168 17.8984 17.829 18.0625C16.932 18.4967 16.2183 19.266 15.8631 20.2321L14.0512 25.1591C13.9714 25.3762 14.21 25.5724 14.4076 25.4521L28.0648 17.1387C28.2223 17.0428 28.2209 16.8136 28.0621 16.7197L14.2999 8.58145C14.1008 8.46369 13.8647 8.66291 13.9473 8.879L15.8219 13.7825Z" fill="white"/>
</svg>
