<svg width="42" height="42" viewBox="0 0 42 42" fill="none" xmlns="http://www.w3.org/2000/svg">
<path fill-rule="evenodd" clip-rule="evenodd" d="M35.2964 18.7979L18.7817 9.03191C16.5867 7.73391 13.9846 9.92991 14.8952 12.3118L17.1447 18.196C17.6059 19.4023 18.376 20.4339 19.3487 21.2091C18.386 21.9967 17.6291 23.038 17.1834 24.2502L15.0092 30.1626C14.129 32.5559 16.759 34.7185 18.9372 33.3926L35.3259 23.4166C37.0625 22.3594 37.0464 19.8328 35.2964 18.7979ZM19.3865 17.3389C19.8276 18.4927 20.6957 19.4048 21.7786 19.9121C22.1879 20.1039 22.6279 20.2378 23.087 20.3051C23.151 20.3145 23.2153 20.3226 23.28 20.3294L26.7782 20.6954C27.335 20.7537 27.3401 21.5625 26.7841 21.6279L23.2909 22.0386C23.2263 22.0462 23.1621 22.0551 23.0983 22.0653C22.64 22.1385 22.2018 22.278 21.795 22.475C20.7186 22.9961 19.8622 23.9192 19.4359 25.0785L17.2617 30.9909C17.1659 31.2514 17.4522 31.4869 17.6893 31.3425L34.078 21.3665C34.267 21.2514 34.2653 20.9764 34.0747 20.8637L17.5601 11.0977C17.3211 10.9564 17.0378 11.1955 17.137 11.4548L19.3865 17.3389Z" fill="white"/>
</svg>
