<svg width="29" height="30" viewBox="0 0 29 30" fill="none" xmlns="http://www.w3.org/2000/svg">
<path d="M19.9683 27H8.83231C7.61932 26.9559 6.48939 26.3724 5.75112 25.409C5.01286 24.4455 4.74339 23.2027 5.01631 22.02L5.30431 20.652C5.63555 18.8001 7.22746 17.4392 9.10831 17.4H19.6923C21.5732 17.4392 23.1651 18.8001 23.4963 20.652L23.7843 22.02C24.0572 23.2027 23.7878 24.4455 23.0495 25.409C22.3112 26.3724 21.1813 26.9559 19.9683 27Z" fill="white"/>
<path d="M15.0003 15H13.8003C11.1493 15 9.00031 12.851 9.00031 10.2V7.03202C8.99711 5.96169 9.42088 4.93427 10.1777 4.17743C10.9346 3.42059 11.962 2.99682 13.0323 3.00002H15.7683C16.8386 2.99682 17.8661 3.42059 18.6229 4.17743C19.3797 4.93427 19.8035 5.96169 19.8003 7.03202V10.2C19.8003 11.4731 19.2946 12.694 18.3944 13.5941C17.4942 14.4943 16.2733 15 15.0003 15Z" fill="white"/>
</svg>
