<svg width="28" height="28" viewBox="0 0 28 28" fill="none" xmlns="http://www.w3.org/2000/svg">
<g clip-path="url(#clip0_1248_16453)">
<path d="M21.0355 14.8442C21.0621 12.7761 22.1459 10.8662 23.9076 9.78353C22.7917 8.18879 20.988 7.21447 19.0427 7.15365C16.9956 6.9391 15.0116 8.3779 13.9687 8.3779C12.9059 8.3779 11.3001 7.17466 9.57046 7.21005C7.29558 7.28415 5.2253 8.546 4.11828 10.5356C1.76156 14.6164 3.51887 20.6149 5.77716 23.9139C6.90741 25.5296 8.22677 27.3334 9.95532 27.2703C11.6463 27.2007 12.2778 26.1921 14.3182 26.1921C16.3398 26.1921 16.9326 27.2703 18.6954 27.2294C20.5091 27.1996 21.6526 25.607 22.7431 23.9758C23.5548 22.8245 24.1797 21.5527 24.5933 20.2068C22.4389 19.2955 21.0377 17.1843 21.0355 14.8442Z" fill="black"/>
<path d="M17.7039 4.98397C18.6926 3.79621 19.1803 2.27004 19.062 0.729492C17.5513 0.888745 16.1545 1.61091 15.1526 2.75222C14.1628 3.87915 13.6607 5.35224 13.758 6.84965C15.2897 6.86514 16.744 6.17725 17.7039 4.98397Z" fill="black"/>
</g>
<defs>
<clipPath id="clip0_1248_16453">
<rect width="26.5421" height="26.5421" fill="white" transform="translate(0.525391 0.729004)"/>
</clipPath>
</defs>
</svg>
