<svg width="22" height="22" viewBox="0 0 22 22" fill="none" xmlns="http://www.w3.org/2000/svg">
<path d="M3.75536 10.5231L10.0554 4.22309C10.229 4.05429 10.4795 3.99093 10.7125 4.0569C10.9455 4.12286 11.1256 4.30812 11.185 4.5429C11.2444 4.77767 11.174 5.02629 11.0004 5.19509L5.86136 10.3251H17.7684C18.1412 10.3251 18.4434 10.6273 18.4434 11.0001C18.4434 11.3729 18.1412 11.6751 17.7684 11.6751H5.87036L11.0004 16.8051C11.129 16.9305 11.2016 17.1025 11.2016 17.2821C11.2016 17.4617 11.129 17.6337 11.0004 17.7591C10.8763 17.8893 10.7031 17.9612 10.5234 17.9571C10.3442 17.9579 10.1723 17.8866 10.0464 17.7591L3.74636 11.4591C3.48315 11.1956 3.48315 10.7686 3.74636 10.5051L3.75536 10.5231Z" fill="black"/>
</svg>
