<svg width="48" height="48" viewBox="0 0 48 48" fill="none" xmlns="http://www.w3.org/2000/svg">
<path d="M24 40.5395C23.6023 40.5392 23.221 40.3809 22.94 40.0995L8.93999 26.0995C8.56486 25.7137 8.42408 25.157 8.57066 24.6392C8.71725 24.1214 9.12895 23.7212 9.65066 23.5892C10.1724 23.4573 10.7249 23.6137 11.1 23.9995L24 36.8995L36.9 23.9995C37.2739 23.5982 37.8371 23.433 38.3686 23.5688C38.9 23.7045 39.315 24.1195 39.4508 24.651C39.5865 25.1824 39.4213 25.7456 39.02 26.1195L25.02 40.1195C24.7457 40.384 24.381 40.5342 24 40.5395Z" fill="black"/>
<path d="M24 40.5195C23.1761 40.5088 22.5108 39.8435 22.5 39.0195V9.01953C22.5 8.48363 22.7859 7.98844 23.25 7.72049C23.7141 7.45254 24.2859 7.45254 24.75 7.72049C25.2141 7.98844 25.5 8.48363 25.5 9.01953V39.0195C25.4892 39.8435 24.8239 40.5088 24 40.5195Z" fill="black"/>
<path d="M24 40.5395C23.6023 40.5392 23.221 40.3809 22.94 40.0995L8.93999 26.0995C8.56486 25.7137 8.42408 25.157 8.57066 24.6392C8.71725 24.1214 9.12895 23.7212 9.65066 23.5892C10.1724 23.4573 10.7249 23.6137 11.1 23.9995L24 36.8995L36.9 23.9995C37.2739 23.5982 37.8371 23.433 38.3686 23.5688C38.9 23.7045 39.315 24.1195 39.4508 24.651C39.5865 25.1824 39.4213 25.7456 39.02 26.1195L25.02 40.1195C24.7457 40.384 24.381 40.5342 24 40.5395Z" fill="black"/>
<path d="M24 40.5195C23.1761 40.5088 22.5108 39.8435 22.5 39.0195V9.01953C22.5 8.48363 22.7859 7.98844 23.25 7.72049C23.7141 7.45254 24.2859 7.45254 24.75 7.72049C25.2141 7.98844 25.5 8.48363 25.5 9.01953V39.0195C25.4892 39.8435 24.8239 40.5088 24 40.5195Z" fill="black"/>
</svg>
