<svg width="24" height="24" viewBox="0 0 24 24" fill="none" xmlns="http://www.w3.org/2000/svg">
<path d="M11.9998 4.49001C11.8594 4.62336 11.7768 4.80646 11.7698 5.00001C11.766 5.20748 11.8494 5.40703 11.9998 5.55001L17.6998 11.25H4.47974C4.06777 11.2554 3.73512 11.588 3.72974 12C3.73512 12.412 4.06777 12.7446 4.47974 12.75L17.6998 12.75L11.9998 18.45C11.8033 18.6411 11.7237 18.9226 11.791 19.1883C11.8583 19.4541 12.0622 19.6637 12.326 19.7383C12.5898 19.8129 12.8733 19.7411 13.0698 19.55L20.0698 12.55C20.3517 12.2529 20.3517 11.7871 20.0698 11.49L13.0698 4.49001C12.9288 4.34648 12.736 4.26563 12.5348 4.26563C12.3336 4.26563 12.1408 4.34648 11.9998 4.49001Z" fill="white"/>
</svg>
