<svg width="29" height="30" viewBox="0 0 29 30" fill="none" xmlns="http://www.w3.org/2000/svg">
<path d="M7.46945 22.1148C7.63929 22.2803 7.86831 22.3711 8.10545 22.3668C8.34189 22.3672 8.5695 22.277 8.74145 22.1148L19.9375 10.9082V20.5788C19.9375 21.0758 20.3404 21.4788 20.8375 21.4788C21.0792 21.4853 21.3132 21.393 21.4853 21.2232C21.6574 21.0533 21.7528 20.8206 21.7495 20.5788V8.90009C21.7806 8.76318 21.7799 8.61854 21.7439 8.47762C21.6625 8.15874 21.4135 7.90974 21.0946 7.8283C20.9537 7.79232 20.809 7.79159 20.6721 7.82277H8.99345C8.4964 7.82277 8.09345 8.22571 8.09345 8.72277C8.09345 9.21982 8.4964 9.62277 8.99345 9.62277H18.6775L7.46945 20.8308C7.29722 21 7.2002 21.2313 7.2002 21.4728C7.2002 21.7142 7.29722 21.9455 7.46945 22.1148Z" fill="black"/>
</svg>
