<svg width="16" height="16" viewBox="0 0 16 16" fill="none" xmlns="http://www.w3.org/2000/svg">
<path d="M7.88043 13.293C7.75317 13.2928 7.63116 13.2422 7.54123 13.1522L3.06123 8.67216C2.94119 8.54869 2.89613 8.37056 2.94304 8.20486C2.98995 8.03917 3.12169 7.91109 3.28864 7.86886C3.45559 7.82664 3.63239 7.87669 3.75243 8.00016L7.88043 12.1282L12.0084 8.00016C12.1281 7.87174 12.3083 7.81888 12.4784 7.86232C12.6484 7.90575 12.7812 8.03855 12.8247 8.20862C12.8681 8.37869 12.8152 8.5589 12.6868 8.67856L8.20683 13.1586C8.11905 13.2432 8.00235 13.2912 7.88043 13.293Z" fill="black"/>
<path d="M7.88043 13.2866C7.61677 13.2831 7.40387 13.0702 7.40043 12.8066V3.20656C7.40043 3.03508 7.49191 2.87661 7.64043 2.79087C7.78894 2.70513 7.97191 2.70513 8.12043 2.79087C8.26894 2.87661 8.36043 3.03508 8.36043 3.20656V12.8066C8.35698 13.0702 8.14408 13.2831 7.88043 13.2866Z" fill="black"/>
<path d="M7.88043 13.293C7.75317 13.2928 7.63116 13.2422 7.54123 13.1522L3.06123 8.67216C2.94119 8.54869 2.89613 8.37056 2.94304 8.20486C2.98995 8.03917 3.12169 7.91109 3.28864 7.86886C3.45559 7.82664 3.63239 7.87669 3.75243 8.00016L7.88043 12.1282L12.0084 8.00016C12.1281 7.87174 12.3083 7.81888 12.4784 7.86232C12.6484 7.90575 12.7812 8.03855 12.8247 8.20862C12.8681 8.37869 12.8152 8.5589 12.6868 8.67856L8.20683 13.1586C8.11905 13.2432 8.00235 13.2912 7.88043 13.293Z" fill="black"/>
<path d="M7.88043 13.2866C7.61677 13.2831 7.40387 13.0702 7.40043 12.8066V3.20656C7.40043 3.03508 7.49191 2.87661 7.64043 2.79087C7.78894 2.70513 7.97191 2.70513 8.12043 2.79087C8.26894 2.87661 8.36043 3.03508 8.36043 3.20656V12.8066C8.35698 13.0702 8.14408 13.2831 7.88043 13.2866Z" fill="black"/>
</svg>
