<svg width="39" height="40" viewBox="0 0 39 40" fill="none" xmlns="http://www.w3.org/2000/svg">
<path fill-rule="evenodd" clip-rule="evenodd" d="M35.104 14.4798L33.424 12.7998C32.6234 11.9902 31.5384 11.5251 30.4 11.5038H24V10.5758C24 8.14573 22.0301 6.17578 19.6 6.17578H6.4C5.73726 6.17578 5.2 6.71304 5.2 7.37578C5.2 8.03852 5.73726 8.57578 6.4 8.57578H19.552C20.6566 8.57578 21.552 9.47121 21.552 10.5758V20.7038C21.552 21.3665 22.0893 21.9038 22.752 21.9038C23.4147 21.9038 23.952 21.3665 23.952 20.7038V13.9038H30.352C30.8823 13.9017 31.3906 14.1154 31.76 14.4958L33.44 16.0958C33.6691 16.3333 33.8343 16.6251 33.92 16.9438H27.2C26.5373 16.9438 26 17.481 26 18.1438C26 18.8065 26.5373 19.3438 27.2 19.3438H34V26.1438C34.0218 26.6879 33.8207 27.2174 33.4433 27.61C33.0658 28.0026 32.5446 28.2242 32 28.2238H30.224C29.8302 26.3777 28.1996 25.0582 26.312 25.0582C24.4244 25.0582 22.7938 26.3777 22.4 28.2238H13.856C13.4254 26.3156 11.6683 25.006 9.71669 25.1384C7.76503 25.2709 6.20107 26.8059 6.03217 28.7547C5.86327 30.7036 7.13983 32.4847 9.0396 32.951C10.9394 33.4172 12.8955 32.4294 13.648 30.6238H22.624C23.2477 32.1089 24.7013 33.075 26.312 33.075C27.9227 33.075 29.3763 32.1089 30 30.6238H32C34.4301 30.6238 36.4 28.6538 36.4 26.2238V17.5998C36.4022 16.4284 35.9355 15.3049 35.104 14.4798ZM9.952 30.3678C9.41484 30.394 8.91609 30.0897 8.69361 29.6001C8.47113 29.1105 8.56998 28.5347 8.94302 28.1473C9.31606 27.7599 9.88773 27.6394 10.3854 27.8432C10.8831 28.0471 11.2059 28.534 11.2 29.0718C11.2005 29.7692 10.6489 30.342 9.952 30.3678ZM25.0904 29.5541C25.2925 30.0463 25.7719 30.3677 26.304 30.3678C27.0224 30.3678 27.6072 29.7901 27.616 29.0718C27.6225 28.5397 27.307 28.0564 26.8173 27.8483C26.3276 27.6402 25.7606 27.7484 25.3821 28.1224C25.0035 28.4963 24.8883 29.0619 25.0904 29.5541Z" fill="white"/>
<path d="M17.2 15.1998C17.1914 14.5406 16.6591 14.0084 16 13.9998H3.2C2.53726 13.9998 2 14.537 2 15.1998C2 15.8625 2.53726 16.3998 3.2 16.3998H16C16.6591 16.3912 17.1914 15.8589 17.2 15.1998Z" fill="white"/>
<path d="M16 18.7998H8C7.33726 18.7998 6.8 19.337 6.8 19.9998C6.8 20.6625 7.33726 21.1998 8 21.1998H16C16.6627 21.1998 17.2 20.6625 17.2 19.9998C17.2 19.337 16.6627 18.7998 16 18.7998Z" fill="white"/>
</svg>
