<svg width="78" height="78" viewBox="0 0 78 78" fill="none" xmlns="http://www.w3.org/2000/svg">
<path fill-rule="evenodd" clip-rule="evenodd" d="M49.9424 15.4804C49.9424 16.8059 48.8679 17.8804 47.5424 17.8804H23.7664V18.1684C23.7489 21.2539 21.252 23.7509 18.1664 23.7684H12.7904C9.70491 23.7509 7.20791 21.2539 7.19043 18.1684V12.7924C7.20791 9.70686 9.70491 7.20986 12.7904 7.19238H18.1664C21.252 7.20986 23.7489 9.70686 23.7664 12.7924V13.0804H47.5424C48.8679 13.0804 49.9424 14.1549 49.9424 15.4804ZM18.1664 18.9684C18.6083 18.9684 18.9664 18.6102 18.9664 18.1684V12.7924C18.9664 12.3506 18.6083 11.9924 18.1664 11.9924H12.7904C12.3556 12.0088 12.0069 12.3575 11.9904 12.7924V18.1684C11.9904 18.6102 12.3486 18.9684 12.7904 18.9684H18.1664Z" fill="black"/>
<path fill-rule="evenodd" clip-rule="evenodd" d="M59.8304 7.19238H65.2064C68.292 7.20986 70.7889 9.70686 70.8064 12.7924V18.1684C70.7889 21.2539 68.292 23.7509 65.2064 23.7684H64.9184V47.5444C64.9184 48.8699 63.8439 49.9444 62.5184 49.9444C61.1929 49.9444 60.1184 48.8699 60.1184 47.5444V23.7684H59.8304C56.7449 23.7509 54.2479 21.2539 54.2304 18.1684V12.7924C54.2479 9.70686 56.7449 7.20986 59.8304 7.19238ZM65.2064 18.9684C65.6483 18.9684 66.0064 18.6102 66.0064 18.1684V12.7924C65.99 12.3575 65.6413 12.0088 65.2064 11.9924H59.8304C59.3886 11.9924 59.0304 12.3506 59.0304 12.7924V18.1684C59.0304 18.6102 59.3886 18.9684 59.8304 18.9684H65.2064Z" fill="black"/>
<path fill-rule="evenodd" clip-rule="evenodd" d="M17.8784 54.2324H18.1664C21.252 54.2499 23.7489 56.7469 23.7664 59.8324V65.2084C23.7489 68.2939 21.252 70.7909 18.1664 70.8084H12.7904C9.70491 70.7909 7.20791 68.2939 7.19043 65.2084V59.8324C7.20791 56.7469 9.70491 54.2499 12.7904 54.2324H13.0784V30.4564C13.0784 29.1309 14.1529 28.0564 15.4784 28.0564C16.8039 28.0564 17.8784 29.1309 17.8784 30.4564V54.2324ZM18.1664 66.0084C18.6083 66.0084 18.9664 65.6502 18.9664 65.2084V59.8324C18.9664 59.3906 18.6083 59.0324 18.1664 59.0324H12.7904C12.3486 59.0324 11.9904 59.3906 11.9904 59.8324V65.2084C12.0069 65.6432 12.3556 65.992 12.7904 66.0084H18.1664Z" fill="black"/>
<path fill-rule="evenodd" clip-rule="evenodd" d="M59.8304 54.2324H65.2064C68.292 54.2499 70.7889 56.7469 70.8064 59.8324V65.2084C70.7889 68.2939 68.292 70.7909 65.2064 70.8084H59.8304C56.7449 70.7909 54.2479 68.2939 54.2304 65.2084V64.9204H30.4544C29.1289 64.9204 28.0544 63.8459 28.0544 62.5204C28.0544 61.1949 29.1289 60.1204 30.4544 60.1204H54.2304V59.8324C54.2479 56.7469 56.7449 54.2499 59.8304 54.2324ZM65.2064 66.0084C65.6413 65.992 65.99 65.6432 66.0064 65.2084V59.8324C66.0064 59.3906 65.6483 59.0324 65.2064 59.0324H59.8304C59.3886 59.0324 59.0304 59.3906 59.0304 59.8324V65.2084C59.0304 65.6502 59.3886 66.0084 59.8304 66.0084H65.2064Z" fill="black"/>
</svg>
