<svg width="484" height="528" viewBox="0 0 484 528" fill="none" xmlns="http://www.w3.org/2000/svg">
<path d="M434.123 15.2789C437.041 17.0293 439.861 18.9388 442.576 21.0096L441.666 22.2023C442.998 23.2179 444.304 24.273 445.583 25.3678C446.863 26.4626 448.108 27.5895 449.317 28.7477L450.355 27.6643C452.821 30.0261 455.144 32.5161 457.325 35.1282L456.174 36.0896C458.318 38.6571 460.323 41.3455 462.191 44.149L463.439 43.3173C465.315 46.133 467.054 49.062 468.657 52.0983L467.33 52.7986C468.881 55.7363 470.304 58.7778 471.599 61.9179L472.986 61.3459C474.268 64.4552 475.427 67.6581 476.463 70.9494L475.032 71.3998C476.029 74.5655 476.911 77.816 477.679 81.1467L479.141 80.8093C479.896 84.0809 480.542 87.4269 481.081 90.8433L479.599 91.0768C480.116 94.3602 480.533 97.7107 480.851 101.125L482.344 100.986C482.655 104.328 482.871 107.73 482.993 111.186L481.494 111.239C481.611 114.568 481.641 117.95 481.583 121.381L483.083 121.406C483.026 124.766 482.886 128.171 482.664 131.619L481.167 131.523C480.953 134.856 480.66 138.23 480.291 141.643L481.782 141.804C481.42 145.151 480.984 148.533 480.476 151.948L478.992 151.727C478.499 155.041 477.936 158.387 477.304 161.763L478.779 162.039C478.158 165.356 477.472 168.701 476.72 172.071L475.256 171.745C474.527 175.014 473.735 178.309 472.883 181.626L474.336 181.999C473.497 185.26 472.6 188.543 471.644 191.844L470.203 191.427C469.269 194.653 468.278 197.897 467.232 201.159L468.66 201.617C467.628 204.835 466.542 208.068 465.402 211.316L463.986 210.819C462.87 214.001 461.701 217.197 460.481 220.406L461.883 220.939C460.684 224.092 459.435 227.257 458.138 230.432L456.749 229.864C455.476 232.979 454.155 236.104 452.788 239.237L454.162 239.837C452.808 242.939 451.408 246.049 449.962 249.165L448.602 248.534C447.179 251.601 445.711 254.675 444.2 257.754L445.546 258.415C444.059 261.445 442.529 264.48 440.956 267.519L439.624 266.83C438.074 269.826 436.482 272.826 434.849 275.829L436.167 276.545C434.546 279.526 432.884 282.509 431.183 285.492L429.88 284.749C428.208 287.682 426.497 290.615 424.748 293.548L426.036 294.316C424.302 297.224 422.53 300.131 420.721 303.037L419.448 302.244C417.659 305.117 415.833 307.99 413.971 310.859L415.229 311.676C413.384 314.519 411.503 317.36 409.586 320.198L408.343 319.358C406.452 322.158 404.526 324.954 402.566 327.746L403.794 328.608C401.842 331.388 399.856 334.164 397.837 336.935L396.624 336.051C394.632 338.783 392.607 341.511 390.549 344.232L391.746 345.136C389.7 347.841 387.622 350.539 385.512 353.231L384.332 352.305C382.239 354.974 380.115 357.636 377.959 360.291L379.124 361.236C376.987 363.867 374.82 366.49 372.622 369.104L371.474 368.138C370.377 369.442 369.274 370.744 368.162 372.043C367.051 373.342 365.936 374.634 364.817 375.919L365.949 376.904C363.707 379.48 361.451 382.027 359.183 384.546L358.069 383.542C355.78 386.083 353.479 388.593 351.166 391.074L352.263 392.097C349.931 394.598 347.587 397.069 345.232 399.508L344.153 398.467C341.783 400.921 339.403 403.344 337.011 405.735L338.072 406.796C335.648 409.22 333.213 411.612 330.769 413.971L329.727 412.892C327.272 415.26 324.808 417.596 322.335 419.897L323.357 420.996C320.85 423.328 318.335 425.626 315.811 427.89L314.81 426.773C312.263 429.057 309.708 431.306 307.146 433.518L308.127 434.654C305.536 436.891 302.938 439.091 300.335 441.255L299.376 440.101C296.749 442.283 294.116 444.428 291.478 446.534L292.414 447.706C289.73 449.849 287.04 451.952 284.346 454.015L283.434 452.824C280.721 454.902 278.004 456.939 275.283 458.935L276.171 460.145C273.412 462.169 270.651 464.15 267.888 466.089L267.026 464.861C264.218 466.831 261.408 468.757 258.598 470.638L259.433 471.884C256.578 473.795 253.722 475.66 250.867 477.478L250.062 476.213C247.178 478.049 244.295 479.837 241.415 481.577L242.191 482.861C239.255 484.635 236.322 486.358 233.393 488.031L232.649 486.729C229.668 488.431 226.692 490.081 223.721 491.677L224.431 492.998C221.399 494.627 218.372 496.201 215.354 497.719L214.68 496.379C211.62 497.918 208.567 499.398 205.525 500.821L206.161 502.18C203.047 503.635 199.943 505.03 196.851 506.364L196.257 504.986C193.112 506.342 189.98 507.634 186.863 508.861L187.412 510.257C184.199 511.521 181.001 512.717 177.82 513.844L177.319 512.43C174.082 513.577 170.863 514.651 167.665 515.652L168.113 517.083C164.818 518.114 161.544 519.069 158.294 519.945L157.904 518.496C154.59 519.39 151.301 520.201 148.041 520.929L148.368 522.393C144.996 523.146 141.654 523.812 138.344 524.388L138.086 522.91C134.706 523.499 131.36 523.993 128.053 524.393L128.233 525.882C124.799 526.297 121.405 526.61 118.055 526.82L117.961 525.323C114.539 525.538 111.164 525.645 107.84 525.643L107.839 527.143C104.381 527.14 100.975 527.019 97.6259 526.78L97.7328 525.284C94.3234 525.04 90.9755 524.672 87.6936 524.178L87.4702 525.661C84.0582 525.147 80.7145 524.498 77.4441 523.713L77.7945 522.254C74.4917 521.461 71.2666 520.526 68.1242 519.449L67.6378 520.868C64.3899 519.755 61.227 518.491 58.1548 517.073L58.7832 515.711C55.7242 514.3 52.7578 512.735 49.8892 511.015L49.1177 512.301C46.1994 510.551 43.3797 508.641 40.6645 506.57L41.5742 505.378C40.2426 504.362 38.9366 503.307 37.6568 502.212C36.377 501.117 35.1325 499.991 33.923 498.832L32.8855 499.916C30.4192 497.554 28.0961 495.064 25.9149 492.452L27.0663 491.49C24.9224 488.923 22.9171 486.235 21.0493 483.431L19.801 484.263C17.925 481.447 16.1863 478.518 14.5835 475.482L15.91 474.781C14.3593 471.844 12.9367 468.802 11.6414 465.662L10.2548 466.234C8.97217 463.125 7.81343 459.922 6.77739 456.631L8.20818 456.18C7.21165 453.014 6.32944 449.764 5.5608 446.433L4.09922 446.771C3.34422 443.499 2.69803 440.153 2.15967 436.737L3.64138 436.503C3.12398 433.22 2.70692 429.869 2.38952 426.456L0.895955 426.594C0.585162 423.252 0.369223 419.85 0.247335 416.394L1.7464 416.341C1.629 413.012 1.59951 409.63 1.65734 406.199L0.157557 406.174C0.214184 402.814 0.353893 399.409 0.576004 395.961L2.0729 396.057C2.28762 392.724 2.57992 389.35 2.94928 385.937L1.45798 385.776C1.82015 382.429 2.25584 379.047 2.76448 375.632L4.24812 375.853C4.74174 372.539 5.30456 369.193 5.9361 365.817L4.46168 365.541C5.08218 362.224 5.76855 358.879 6.52028 355.509L7.9843 355.835C8.71359 352.566 9.50482 349.271 10.3575 345.954L8.90479 345.581C9.7432 342.32 10.6407 339.037 11.5968 335.736L13.0376 336.153C13.9717 332.927 14.9621 329.683 16.0084 326.421L14.5801 325.963C15.6123 322.746 16.6985 319.512 17.8385 316.264L19.2538 316.761C20.3707 313.579 21.5394 310.383 22.7596 307.174L21.3576 306.641C22.5567 303.488 23.8052 300.323 25.1028 297.148L26.4913 297.716C27.7643 294.601 29.0849 291.477 30.4526 288.343L29.0779 287.743C30.432 284.641 31.8321 281.531 33.2778 278.415L34.6385 279.046C36.0614 275.979 37.5288 272.905 39.0404 269.826L37.6938 269.165C39.1814 266.135 40.7115 263.1 42.2838 260.061L43.616 260.75C45.1666 257.754 46.7585 254.754 48.3914 251.752L47.0736 251.035C48.6947 248.054 50.356 245.071 52.0573 242.088L53.3604 242.831C55.0324 239.898 56.7432 236.965 58.4925 234.032L57.2042 233.264C58.9382 230.356 60.7099 227.449 62.519 224.543L63.7924 225.336C65.5815 222.463 67.4074 219.59 69.2698 216.721L68.0115 215.904C69.8568 213.061 71.7377 210.22 73.6541 207.382L74.8972 208.222C76.7882 205.422 78.7138 202.626 80.6739 199.834L79.4463 198.972C81.3981 196.192 83.3841 193.416 85.4038 190.645L86.6158 191.529C88.608 188.797 90.6331 186.069 92.6911 183.348L91.4947 182.444C93.5402 179.739 95.618 177.041 97.7279 174.349L98.9083 175.275C101.001 172.606 103.125 169.944 105.281 167.289L104.117 166.344C106.253 163.713 108.421 161.09 110.619 158.476L111.767 159.442C112.863 158.138 113.967 156.836 115.078 155.537C116.19 154.238 117.305 152.946 118.423 151.661L117.291 150.676C119.534 148.1 121.789 145.553 124.057 143.034L125.172 144.038C127.46 141.497 129.761 138.987 132.074 136.506L130.977 135.483C133.309 132.982 135.653 130.511 138.008 128.072L139.087 129.113C141.457 126.659 143.838 124.236 146.229 121.845L145.168 120.784C147.592 118.36 150.027 115.968 152.472 113.609L153.513 114.688C155.968 112.32 158.432 109.984 160.906 107.683L159.884 106.585C162.39 104.252 164.906 101.954 167.429 99.6904L168.43 100.807C170.977 98.5227 173.532 96.2741 176.094 94.0616L175.114 92.9263C177.704 90.6891 180.302 88.4886 182.906 86.3253L183.864 87.4791C186.491 85.2967 189.124 83.1523 191.762 81.0464L190.826 79.8741C193.511 77.7313 196.2 75.6282 198.894 73.5651L199.806 74.756C202.519 72.6778 205.237 70.6406 207.957 68.6448L207.07 67.4354C209.828 65.4115 212.589 63.4299 215.353 61.491L216.214 62.719C219.022 60.7489 221.832 58.8232 224.642 56.9425L223.808 55.6959C226.663 53.785 229.518 51.9203 232.373 50.1022L233.179 51.3674C236.062 49.531 238.945 47.7426 241.825 46.0026L241.049 44.7187C243.985 42.9451 246.918 41.2216 249.847 39.5488L250.591 40.8513C253.572 39.149 256.549 37.4995 259.52 35.9033L258.81 34.582C261.842 32.9528 264.868 31.379 267.887 29.8611L268.561 31.2012C271.621 29.6625 274.673 28.1816 277.715 26.7592L277.08 25.4004C280.193 23.9446 283.297 22.5497 286.389 21.2164L286.983 22.5939C290.128 21.2378 293.26 19.946 296.377 18.7192L295.828 17.3234C299.041 16.0589 302.24 14.8628 305.42 13.7362L305.921 15.1502C309.159 14.0035 312.377 12.9292 315.575 11.9284L315.127 10.4969C318.422 9.46554 321.696 8.51137 324.946 7.63543L325.336 9.08376C328.651 8.19044 331.939 7.37914 335.199 6.65086L334.872 5.18697C338.244 4.43362 341.587 3.76828 344.897 3.19213L345.154 4.66991C348.535 4.08146 351.88 3.58696 355.188 3.1874L355.008 1.69823C358.441 1.28348 361.835 0.970143 365.185 0.759557L365.279 2.25661C368.701 2.04156 372.076 1.93477 375.4 1.93752L375.401 0.43748C378.86 0.440313 382.265 0.560605 385.614 0.799906L385.507 2.29613C388.917 2.53974 392.265 2.90798 395.547 3.40229L395.77 1.91902C399.182 2.4329 402.526 3.08172 405.796 3.86739L405.446 5.32589C408.749 6.11932 411.974 7.05376 415.116 8.13089L415.602 6.71194C418.85 7.82525 422.013 9.08941 425.085 10.5067L424.457 11.8688C427.516 13.28 430.482 14.8447 433.351 16.5652L434.123 15.2789Z" stroke="url(#paint0_linear_1248_16506)" stroke-width="3" stroke-dasharray="10 10"/>
<defs>
<linearGradient id="paint0_linear_1248_16506" x1="446.559" y1="24.228" x2="36.6817" y2="503.352" gradientUnits="userSpaceOnUse">
<stop stop-color="white"/>
<stop offset="1" stop-color="white" stop-opacity="0"/>
</linearGradient>
</defs>
</svg>
