<svg width="50" height="50" viewBox="0 0 50 50" fill="none" xmlns="http://www.w3.org/2000/svg">
<g clip-path="url(#clip0_1272_1173)">
<rect x="0.400391" y="0.200195" width="49.6" height="49.6" rx="24.8" fill="black" fill-opacity="0.04"/>
<path d="M36.4412 25.376L30.8412 19.776C30.6868 19.6259 30.4642 19.5696 30.257 19.6283C30.0499 19.6869 29.8898 19.8516 29.837 20.0603C29.7843 20.269 29.8468 20.4899 30.0012 20.64L34.5692 25.2H13.4008C13.0694 25.2 12.8008 25.4686 12.8008 25.8C12.8008 26.1314 13.0694 26.4 13.4008 26.4H34.5612L30.0012 30.96C29.8868 31.0714 29.8223 31.2243 29.8223 31.384C29.8223 31.5437 29.8868 31.6966 30.0012 31.808C30.1114 31.9237 30.2654 31.9876 30.4252 31.984C30.5844 31.9847 30.7372 31.9213 30.8492 31.808L36.4492 26.208C36.6831 25.9737 36.6831 25.5943 36.4492 25.36L36.4412 25.376Z" fill="black"/>
<path d="M8.84057 25.1709L3.24057 19.5709C3.08623 19.4209 2.86357 19.3646 2.65645 19.4232C2.44933 19.4818 2.28923 19.6465 2.23645 19.8552C2.18367 20.0639 2.24623 20.2849 2.40057 20.4349L6.96857 24.9949H-14.1998C-14.5312 24.9949 -14.7998 25.2635 -14.7998 25.5949C-14.7998 25.9263 -14.5312 26.1949 -14.1998 26.1949H6.96057L2.40057 30.7549C2.28621 30.8663 2.22171 31.0192 2.22171 31.1789C2.22171 31.3386 2.28621 31.4915 2.40057 31.6029C2.51084 31.7186 2.66477 31.7825 2.82457 31.7789C2.98382 31.7797 3.13666 31.7162 3.24857 31.6029L8.84857 26.0029C9.08253 25.7687 9.08253 25.3892 8.84857 25.1549L8.84057 25.1709Z" fill="black"/>
<path d="M66.4412 25.1709L60.8412 19.5709C60.6868 19.4209 60.4642 19.3646 60.257 19.4232C60.0499 19.4818 59.8898 19.6465 59.837 19.8552C59.7843 20.0639 59.8468 20.2849 60.0012 20.4349L64.5692 24.9949H43.4008C43.0694 24.9949 42.8008 25.2635 42.8008 25.5949C42.8008 25.9263 43.0694 26.1949 43.4008 26.1949H64.5612L60.0012 30.7549C59.8868 30.8663 59.8223 31.0192 59.8223 31.1789C59.8223 31.3386 59.8868 31.4915 60.0012 31.6029C60.1114 31.7186 60.2654 31.7825 60.4252 31.7789C60.5844 31.7797 60.7372 31.7162 60.8492 31.6029L66.4492 26.0029C66.6831 25.7687 66.6831 25.3892 66.4492 25.1549L66.4412 25.1709Z" fill="black"/>
</g>
<defs>
<clipPath id="clip0_1272_1173">
<rect x="0.400391" y="0.200195" width="49.6" height="49.6" rx="24.8" fill="white"/>
</clipPath>
</defs>
</svg>
