<svg width="40" height="40" viewBox="0 0 40 40" fill="none" xmlns="http://www.w3.org/2000/svg">
<rect width="40" height="40" rx="20" fill="white"/>
<g clip-path="url(#clip0_1257_503)">
<path d="M24.9149 16.8756C22.6023 15.5822 18.8907 13.5053 13.1336 10.2818C12.7455 10.0254 12.2989 9.99182 11.9131 10.1224L21.7906 19.9999L24.9149 16.8756Z" fill="#32BBFF"/>
<path d="M11.9121 10.1226C11.8398 10.1471 11.7694 10.1766 11.7021 10.2123C11.276 10.4428 10.9629 10.8863 10.9629 11.4472V28.5529C10.9629 29.1138 11.276 29.5573 11.7021 29.7878C11.7693 29.8234 11.8396 29.8531 11.9118 29.8777L21.7896 20L11.9121 10.1226Z" fill="#32BBFF"/>
<path d="M21.7908 20L11.9131 29.8777C12.299 30.0092 12.7456 29.9782 13.1339 29.7182C18.717 26.5918 22.3868 24.5395 24.7261 23.2351C24.7912 23.1985 24.855 23.1627 24.918 23.1273L21.7908 20Z" fill="#32BBFF"/>
<path d="M10.9629 19.999V28.5519C10.9629 29.1128 11.276 29.5563 11.7021 29.7867C11.7693 29.8224 11.8396 29.8521 11.9118 29.8767L21.7896 19.999H10.9629Z" fill="#2C9FD9"/>
<path d="M13.1337 10.2808C12.6728 9.9764 12.1292 9.98507 11.7031 10.2112L21.6407 20.1488L24.9149 16.8746C22.6024 15.5812 18.8907 13.5043 13.1337 10.2808Z" fill="#29CC5E"/>
<path d="M21.6408 19.8491L11.7031 29.7867C12.1293 30.0128 12.6728 30.0258 13.1337 29.7171C18.7168 26.5908 22.3866 24.5384 24.7259 23.234C24.791 23.1974 24.8548 23.1617 24.9178 23.1262L21.6408 19.8491Z" fill="#D93F21"/>
<path d="M29.0387 19.9994C29.0387 19.5255 28.7995 19.0472 28.3255 18.7819C28.3255 18.7819 27.4391 18.2873 24.7221 16.7676L21.4902 19.9994L24.7252 23.2344C27.4124 21.7256 28.3255 21.2169 28.3255 21.2169C28.7995 20.9517 29.0387 20.4734 29.0387 19.9994Z" fill="#FFD500"/>
<path d="M28.3255 21.2165C28.7995 20.9513 29.0387 20.473 29.0387 19.999H21.4902L24.7252 23.234C27.4125 21.7253 28.3255 21.2165 28.3255 21.2165Z" fill="#FFAA00"/>
</g>
<defs>
<clipPath id="clip0_1257_503">
<rect width="19.9066" height="19.9066" fill="white" transform="translate(10.0469 10.0469)"/>
</clipPath>
</defs>
</svg>
