<svg width="40" height="40" viewBox="0 0 40 40" fill="none" xmlns="http://www.w3.org/2000/svg">
<rect width="40" height="40" rx="20" fill="white"/>
<g clip-path="url(#clip0_1257_502)">
<path d="M25.7905 20.6758C25.8118 19.0213 26.6788 17.4934 28.0882 16.6272C27.1955 15.3514 25.7525 14.572 24.1962 14.5233C22.5586 14.3517 20.9714 15.5027 20.1371 15.5027C19.2868 15.5027 18.0022 14.5401 16.6185 14.5684C14.7986 14.6277 13.1424 15.6372 12.2567 17.2288C10.3714 20.4935 11.7772 25.2923 13.5838 27.9315C14.488 29.2241 15.5435 30.6671 16.9264 30.6167C18.2791 30.5609 18.7843 29.754 20.4166 29.754C22.0339 29.754 22.5082 30.6167 23.9184 30.5839C25.3694 30.56 26.2842 29.286 27.1566 27.981C27.806 27.06 28.3058 26.0426 28.6367 24.9658C26.9133 24.2368 25.7923 22.5479 25.7905 20.6758Z" fill="black"/>
<path d="M23.1253 12.7874C23.9162 11.8372 24.3064 10.6162 24.2117 9.38379C23.0032 9.51119 21.8857 10.0889 21.0842 11.002C20.2923 11.9035 19.8907 13.082 19.9685 14.2799C21.1939 14.2923 22.3573 13.742 23.1253 12.7874Z" fill="black"/>
</g>
<defs>
<clipPath id="clip0_1257_502">
<rect width="21.2337" height="21.2337" fill="white" transform="translate(9.38281 9.3833)"/>
</clipPath>
</defs>
</svg>
