<svg width="62" height="62" viewBox="0 0 62 62" fill="none" xmlns="http://www.w3.org/2000/svg">
<g clip-path="url(#clip0_1248_16479)">
<rect width="62" height="62" rx="31" fill="white" fill-opacity="0.79"/>
<path d="M45.0505 31.47L38.0505 24.47C37.8575 24.2824 37.5792 24.212 37.3203 24.2853C37.0614 24.3586 36.8613 24.5645 36.7953 24.8253C36.7293 25.0862 36.8075 25.3624 37.0005 25.55L42.7105 31.25H16.25C15.8358 31.25 15.5 31.5858 15.5 32C15.5 32.4142 15.8358 32.75 16.25 32.75H42.7005L37.0005 38.45C36.8575 38.5893 36.7769 38.7804 36.7769 38.98C36.7769 39.1796 36.8575 39.3707 37.0005 39.51C37.1383 39.6546 37.3307 39.7345 37.5305 39.73C37.7295 39.7309 37.9206 39.6516 38.0605 39.51L45.0605 32.51C45.3529 32.2172 45.3529 31.7428 45.0605 31.45L45.0505 31.47Z" fill="black"/>
<path d="M10.5505 31.2132L3.55047 24.2132C3.35754 24.0256 3.07921 23.9552 2.82032 24.0285C2.56142 24.1018 2.36129 24.3076 2.29531 24.5685C2.22934 24.8294 2.30754 25.1056 2.50047 25.2932L8.21047 30.9932H-18.25C-18.6642 30.9932 -19 31.3289 -19 31.7432C-19 32.1574 -18.6642 32.4932 -18.25 32.4932H8.20047L2.50047 38.1932C2.35752 38.3324 2.2769 38.5236 2.2769 38.7232C2.2769 38.9227 2.35752 39.1139 2.50047 39.2532C2.63831 39.3978 2.83072 39.4777 3.03047 39.4732C3.22953 39.4741 3.42059 39.3948 3.56047 39.2532L10.5605 32.2532C10.8529 31.9603 10.8529 31.486 10.5605 31.1932L10.5505 31.2132Z" fill="black"/>
<path d="M82.5505 31.2132L75.5505 24.2132C75.3575 24.0256 75.0792 23.9552 74.8203 24.0285C74.5614 24.1018 74.3613 24.3076 74.2953 24.5685C74.2293 24.8294 74.3075 25.1056 74.5005 25.2932L80.2105 30.9932H53.75C53.3358 30.9932 53 31.3289 53 31.7432C53 32.1574 53.3358 32.4932 53.75 32.4932H80.2005L74.5005 38.1932C74.3575 38.3324 74.2769 38.5236 74.2769 38.7232C74.2769 38.9227 74.3575 39.1139 74.5005 39.2532C74.6383 39.3978 74.8307 39.4777 75.0305 39.4732C75.2295 39.4741 75.4206 39.3948 75.5605 39.2532L82.5605 32.2532C82.8529 31.9603 82.8529 31.486 82.5605 31.1932L82.5505 31.2132Z" fill="black"/>
</g>
<defs>
<clipPath id="clip0_1248_16479">
<rect width="62" height="62" rx="31" fill="white"/>
</clipPath>
</defs>
</svg>
