<svg width="36" height="36" viewBox="0 0 36 36" fill="none" xmlns="http://www.w3.org/2000/svg">
<path fill-rule="evenodd" clip-rule="evenodd" d="M17.9999 3.60033C13.199 3.56643 9.21112 7.2957 8.92358 12.0881C8.63603 16.8806 12.1494 21.0599 16.9199 21.6003V27.7923C16.9199 28.3888 17.4035 28.8723 17.9999 28.8723C18.5964 28.8723 19.0799 28.3888 19.0799 27.7923V21.6003C23.8505 21.0599 27.3638 16.8806 27.0763 12.0881C26.7887 7.2957 22.8009 3.56643 17.9999 3.60033ZM17.0639 8.59713C15.4074 8.59711 14.0622 9.9358 14.0543 11.5923C14.0543 12.1888 13.5708 12.6723 12.9743 12.6723C12.3779 12.6723 11.8943 12.1888 11.8943 11.5923C11.9023 8.74286 14.2144 6.43712 17.0639 6.43713C17.6604 6.43713 18.1439 6.92066 18.1439 7.51713C18.1439 8.11359 17.6604 8.59713 17.0639 8.59713Z" fill="black"/>
<path d="M23.5007 23.4579C23.7754 22.9388 24.411 22.729 24.9407 22.9827C26.7089 23.6637 27.9295 25.2987 28.0799 27.1875C28.0799 30.3699 23.7599 32.7747 17.9999 32.7747C12.2399 32.7747 7.91992 30.3699 7.91992 27.1875C8.09667 25.3256 9.31285 23.7245 11.0591 23.0547C11.592 22.7843 12.2431 22.9971 12.5135 23.5299C12.7839 24.0628 12.5712 24.7139 12.0383 24.9843C10.7711 25.6323 10.0511 26.4387 10.0511 27.1875C10.0511 28.7427 13.4639 30.5283 18.0143 30.5283C22.5647 30.5283 25.9631 28.7283 25.9631 27.1011C25.9631 26.3379 25.2431 25.5459 23.9759 24.8979C23.4505 24.6285 23.2389 23.9871 23.5007 23.4579Z" fill="black"/>
</svg>
