<svg width="47" height="48" viewBox="0 0 47 48" fill="none" xmlns="http://www.w3.org/2000/svg">
<path fill-rule="evenodd" clip-rule="evenodd" d="M40.5462 18.4071C41.9798 18.4037 43.2979 19.1931 43.9718 20.4586C44.6715 21.6982 44.6344 23.222 43.875 24.4261L35.0304 37.6833C34.111 39.1686 32.3106 39.854 30.6362 39.3562C28.9617 38.8584 27.8282 37.3008 27.8696 35.5544V30.0386H23.7279C22.3423 30.0441 21.0594 29.3085 20.3642 28.1099C19.669 26.9113 19.6675 25.4325 20.3604 24.2325L29.3404 8.51739C30.0312 7.32101 31.3072 6.58345 32.6886 6.58203C34.8264 6.58203 36.5593 8.31501 36.5593 10.4528V18.4071H40.5462ZM32.5144 36.0769L41.359 22.8197C41.5836 22.5209 41.616 22.1194 41.4423 21.7885C41.2685 21.4575 40.9197 21.2562 40.5462 21.2714H35.5917C34.5228 21.2714 33.6563 20.4049 33.6563 19.3361V10.414C33.6563 10.154 33.5517 9.9049 33.3661 9.72286C33.1804 9.54081 32.9292 9.44116 32.6693 9.44636C32.3149 9.44757 31.9921 9.65026 31.8371 9.96891L22.857 25.684C22.6927 25.9843 22.6992 26.3489 22.8741 26.6431C23.049 26.9372 23.3663 27.1171 23.7085 27.1162H28.8179C29.8868 27.1162 30.7533 27.9827 30.7533 29.0516V35.535C30.7584 35.9554 31.0344 36.3244 31.4363 36.448C31.8381 36.5717 32.2738 36.4217 32.5144 36.0769Z" fill="black"/>
<path d="M16.9348 12.0978H7.64505C6.84339 12.0978 6.19353 12.7477 6.19353 13.5493C6.19353 14.351 6.84339 15.0008 7.64505 15.0008H16.9348C17.7364 15.0008 18.3863 14.351 18.3863 13.5493C18.3863 12.7477 17.7364 12.0978 16.9348 12.0978Z" fill="black"/>
<path d="M16.0639 22.7036C16.0534 21.9063 15.4096 21.2625 14.6123 21.2521H5.32261C4.52096 21.2521 3.87109 21.9019 3.87109 22.7036C3.87109 23.5052 4.52096 24.1551 5.32261 24.1551H14.6123C14.9973 24.1551 15.3665 24.0022 15.6387 23.73C15.9109 23.4577 16.0639 23.0885 16.0639 22.7036Z" fill="black"/>
<path d="M16.9348 32.4191H7.64505C6.84339 32.4191 6.19353 33.069 6.19353 33.8706C6.19353 34.6723 6.84339 35.3221 7.64505 35.3221H16.9348C17.7364 35.3221 18.3863 34.6723 18.3863 33.8706C18.3863 33.069 17.7364 32.4191 16.9348 32.4191Z" fill="black"/>
</svg>
