<svg width="20" height="21" viewBox="0 0 20 21" fill="none" xmlns="http://www.w3.org/2000/svg">
<path d="M17.8566 10.4345C17.8564 14.4463 14.8564 17.8243 10.8726 18.2985V12.9385H12.2806C12.478 12.9395 12.6441 12.7908 12.6646 12.5945L12.8166 11.4345C12.8272 11.3243 12.7925 11.2146 12.7206 11.1305C12.647 11.0435 12.5386 10.9936 12.4246 10.9945H10.8726V9.63447C10.8726 9.19264 11.2308 8.83447 11.6726 8.83447H12.4726C12.5759 8.83662 12.6756 8.79712 12.7494 8.72487C12.8231 8.65262 12.8647 8.55371 12.8646 8.45047V7.16247C12.8621 6.96207 12.7116 6.7945 12.5126 6.77047C12.5126 6.77047 11.9366 6.72247 11.2486 6.72247C9.53664 6.72247 8.59264 7.73847 8.59264 9.58647V10.9945H6.99264C6.77615 10.9945 6.60064 11.17 6.60064 11.3865V12.5465C6.60064 12.763 6.77615 12.9385 6.99264 12.9385H8.54464V18.2345C4.40982 17.5014 1.56386 13.6713 2.05507 9.50083C2.54629 5.33035 6.20426 2.26633 10.3963 2.51401C14.5883 2.7617 17.86 6.23517 17.8566 10.4345Z" fill="white"/>
</svg>
