<svg width="24" height="25" viewBox="0 0 24 25" fill="none" xmlns="http://www.w3.org/2000/svg">
<path fill-rule="evenodd" clip-rule="evenodd" d="M15.2187 8.38956C15.1274 8.37883 15.0352 8.37883 14.944 8.38956L9.97731 9.67518C9.58192 9.7732 9.2732 10.0819 9.17518 10.4773L7.92253 15.4879C7.83992 15.8214 7.91808 16.1744 8.13378 16.4419C8.34948 16.7093 8.67788 16.8605 9.02134 16.8504C9.1126 16.8612 9.20479 16.8612 9.29605 16.8504L14.3176 15.5648C14.713 15.4668 15.0217 15.1581 15.1198 14.7627L16.3724 9.7521C16.455 9.41857 16.3769 9.06559 16.1612 8.79812C15.9455 8.53065 15.6171 8.37949 15.2736 8.38956H15.2187ZM14.01 10.6861L13.2408 13.7847L10.1421 14.5539L10.9113 11.4553L14.01 10.6861Z" fill="black"/>
<path fill-rule="evenodd" clip-rule="evenodd" d="M14.4495 1.5H9.79051C4.93565 1.5 1 5.43565 1 10.2905V14.9495C1 19.8044 4.93565 23.74 9.79051 23.74H14.4495C19.3044 23.74 23.24 19.8044 23.24 14.9495V10.2905C23.24 5.43565 19.3044 1.5 14.4495 1.5ZM9.79051 22.0918C5.84844 22.0857 2.65427 18.8916 2.64822 14.9495V10.2905C2.65427 6.34844 5.84844 3.15427 9.79051 3.14822H14.4495C18.3916 3.15427 21.5857 6.34844 21.5918 10.2905V14.9495C21.5857 18.8916 18.3916 22.0857 14.4495 22.0918H9.79051Z" fill="black"/>
</svg>
