<svg width="24" height="25" viewBox="0 0 24 25" fill="none" xmlns="http://www.w3.org/2000/svg">
<path fill-rule="evenodd" clip-rule="evenodd" d="M12 2.50016C8.66601 2.47662 5.89667 5.06639 5.69698 8.39448C5.4973 11.7226 7.93711 14.6249 11.25 15.0002V19.3002C11.25 19.7144 11.5858 20.0502 12 20.0502C12.4142 20.0502 12.75 19.7144 12.75 19.3002V15.0002C16.0629 14.6249 18.5027 11.7226 18.303 8.39448C18.1033 5.06639 15.334 2.47662 12 2.50016ZM11.35 5.97016C10.1996 5.97015 9.2655 6.89979 9.26 8.05016C9.26 8.46437 8.92421 8.80016 8.51 8.80016C8.09579 8.80016 7.76 8.46437 7.76 8.05016C7.76551 6.07136 9.3712 4.47015 11.35 4.47016C11.7642 4.47016 12.1 4.80595 12.1 5.22016C12.1 5.63437 11.7642 5.97016 11.35 5.97016Z" fill="black"/>
<path d="M15.82 16.2902C16.0108 15.9296 16.4521 15.784 16.82 15.9602C18.0479 16.4331 18.8956 17.5685 19 18.8802C19 21.0902 16 22.7602 12 22.7602C8 22.7602 5 21.0902 5 18.8802C5.12274 17.5872 5.96731 16.4753 7.18 16.0102C7.55003 15.8224 8.00222 15.9701 8.19 16.3402C8.37778 16.7102 8.23003 17.1624 7.86 17.3502C6.98 17.8002 6.48 18.3602 6.48 18.8802C6.48 19.9602 8.85 21.2002 12.01 21.2002C15.17 21.2002 17.53 19.9502 17.53 18.8202C17.53 18.2902 17.03 17.7402 16.15 17.2902C15.7851 17.1031 15.6382 16.6577 15.82 16.2902Z" fill="black"/>
</svg>
