<svg width="20" height="20" viewBox="0 0 20 20" fill="none" xmlns="http://www.w3.org/2000/svg">
<path d="M12.9906 12.8753C12.3955 12.5046 11.651 12.4683 11.0226 12.7793L8.62261 10.3793C8.80033 9.97388 8.83969 9.52126 8.73461 9.09127C8.71673 9.0314 8.69536 8.97264 8.67061 8.91527L11.0226 6.56327C11.9033 6.9975 12.9691 6.7222 13.5294 5.91579C14.0896 5.10938 13.9757 4.01447 13.2614 3.34066C12.5472 2.66685 11.4475 2.61686 10.6751 3.22308C9.90266 3.8293 9.68986 4.90935 10.1746 5.76327L7.95861 7.94727C7.20409 7.41096 6.18013 7.46252 5.4833 8.07191C4.78647 8.68129 4.59889 9.68925 5.02985 10.5085C5.46081 11.3278 6.39767 11.7442 7.29461 11.5153C7.48103 11.4605 7.65878 11.3797 7.82261 11.2753L10.2226 13.6753C9.72969 14.6389 10.0965 15.8198 11.0486 16.3347C12.0008 16.8495 13.1898 16.5098 13.7262 15.5696C14.2627 14.6295 13.9502 13.4331 13.0226 12.8753H12.9906Z" fill="white"/>
</svg>
