<svg width="36" height="36" viewBox="0 0 36 36" fill="none" xmlns="http://www.w3.org/2000/svg">
<path fill-rule="evenodd" clip-rule="evenodd" d="M18.72 5.04004C11.1648 5.04004 5.04004 11.1648 5.04004 18.72C5.04004 26.2753 11.1648 32.4 18.72 32.4C26.2753 32.4 32.4 26.2753 32.4 18.72C32.4 15.0919 30.9588 11.6123 28.3933 9.04682C25.8278 6.48132 22.3482 5.04004 18.72 5.04004ZM16.3008 16.3872C15.6834 16.3872 15.066 17.0029 14.4468 17.6203C13.824 18.2413 13.1994 18.864 12.5712 18.864C12.2404 18.8561 11.9208 18.984 11.6868 19.218C11.4528 19.452 11.3249 19.7716 11.3328 20.1024L12.5712 22.5936C12.5712 22.5936 12.5712 26.3232 13.824 27.5616C15.0768 28.8 13.824 28.8 13.824 28.8C10.1916 27.3395 7.6797 23.9717 7.31524 20.0736C7.02835 17.1992 7.85277 14.3241 9.61924 12.0384C9.81859 11.7677 10.13 11.602 10.466 11.588C10.8019 11.574 11.1261 11.7132 11.3472 11.9664C11.6266 12.3735 12.0784 12.6286 12.5712 12.6576C13.824 12.6576 17.5536 16.3872 16.3008 16.3872ZM26.6832 22.2307C27.4002 22.6241 28.0784 22.9962 28.5552 22.7808C30.6432 21.8448 29.9232 16.272 29.9232 16.272C29.9232 16.272 28.872 11.4048 26.064 10.3536C25.6798 10.2256 25.3871 10.7602 25.0558 11.3651C24.6795 12.0524 24.2536 12.8304 23.5872 12.8304C22.3344 12.8304 21.096 12.8448 21.096 14.0832C21.096 14.7024 21.7188 15.3252 22.3416 15.948C22.9644 16.5708 23.5872 17.1936 23.5872 17.8128C23.5872 19.0512 23.5872 21.528 24.8256 21.528C25.4026 21.528 26.0577 21.8875 26.6832 22.2307Z" fill="black"/>
</svg>
