<svg width="20" height="20" viewBox="0 0 20 20" fill="none" xmlns="http://www.w3.org/2000/svg">
<path fill-rule="evenodd" clip-rule="evenodd" d="M9.6 2.00013C6.93281 1.98129 4.71733 4.05311 4.55759 6.71558C4.39784 9.37805 6.34969 11.6999 9 12.0001V15.4401C9 15.7715 9.26863 16.0401 9.6 16.0401C9.93137 16.0401 10.2 15.7715 10.2 15.4401V12.0001C12.8503 11.6999 14.8022 9.37805 14.6424 6.71558C14.4827 4.05311 12.2672 1.98129 9.6 2.00013ZM9.08 4.77613C8.1597 4.77612 7.4124 5.51983 7.408 6.44013C7.408 6.7715 7.13937 7.04013 6.808 7.04013C6.47663 7.04013 6.208 6.7715 6.208 6.44013C6.21241 4.85709 7.49696 3.57612 9.08 3.57613C9.41137 3.57613 9.68 3.84476 9.68 4.17613C9.68 4.5075 9.41137 4.77613 9.08 4.77613Z" fill="#535353"/>
<path d="M12.656 13.0321C12.8086 12.7437 13.1617 12.6272 13.456 12.7681C14.4383 13.1465 15.1164 14.0548 15.2 15.1041C15.2 16.8721 12.8 18.2081 9.6 18.2081C6.4 18.2081 4 16.8721 4 15.1041C4.09819 14.0697 4.77385 13.1802 5.744 12.8081C6.04002 12.6579 6.40178 12.7761 6.552 13.0721C6.70222 13.3682 6.58402 13.7299 6.288 13.8801C5.584 14.2401 5.184 14.6881 5.184 15.1041C5.184 15.9681 7.08 16.9601 9.608 16.9601C12.136 16.9601 14.024 15.9601 14.024 15.0561C14.024 14.6321 13.624 14.1921 12.92 13.8321C12.6281 13.6825 12.5105 13.3261 12.656 13.0321Z" fill="#535353"/>
</svg>
