<svg width="15" height="16" viewBox="0 0 15 16" fill="none" xmlns="http://www.w3.org/2000/svg">
<path fill-rule="evenodd" clip-rule="evenodd" d="M9.1308 5.53389C9.07605 5.52745 9.02073 5.52745 8.96598 5.53389L5.986 6.30525C5.74876 6.36407 5.56353 6.5493 5.50472 6.78653L4.75313 9.79289C4.70356 9.99301 4.75046 10.2048 4.87988 10.3653C5.0093 10.5258 5.20634 10.6165 5.41242 10.6104C5.46717 10.6168 5.52249 10.6168 5.57724 10.6104L8.59019 9.83904C8.82742 9.78023 9.01266 9.595 9.07147 9.35776L9.82306 6.3514C9.87263 6.15129 9.82573 5.9395 9.69631 5.77902C9.56689 5.61854 9.36985 5.52784 9.16377 5.53389H9.1308ZM8.40559 6.9118L7.94409 8.77099L6.08489 9.23249L6.54639 7.3733L8.40559 6.9118Z" fill="black"/>
<path fill-rule="evenodd" clip-rule="evenodd" d="M8.6693 1.40015H5.87392C2.961 1.40015 0.599609 3.76154 0.599609 6.67446V9.46984C0.599609 12.3828 2.961 14.7441 5.87392 14.7441H8.6693C11.5822 14.7441 13.9436 12.3828 13.9436 9.46984V6.67446C13.9436 3.76154 11.5822 1.40015 8.6693 1.40015ZM5.87392 13.7552C3.50868 13.7516 1.59217 11.8351 1.58854 9.46984V6.67446C1.59217 4.30921 3.50868 2.39271 5.87392 2.38908H8.6693C11.0345 2.39271 12.951 4.30921 12.9547 6.67446V9.46984C12.951 11.8351 11.0345 13.7516 8.6693 13.7552H5.87392Z" fill="black"/>
</svg>
