<svg width="39" height="40" viewBox="0 0 39 40" fill="none" xmlns="http://www.w3.org/2000/svg">
<path fill-rule="evenodd" clip-rule="evenodd" d="M26.8642 5.872L32.1442 11.152C33.3441 12.3533 34.0175 13.9821 34.0162 15.68V23.136C34.0175 24.8339 33.3441 26.4627 32.1442 27.664L26.8642 32.944C25.6629 34.1439 24.0341 34.8173 22.3362 34.816H14.8802C13.1823 34.8173 11.5535 34.1439 10.3522 32.944L5.0722 27.664C3.87227 26.4627 3.19886 24.8339 3.2002 23.136V15.68C3.19886 13.9821 3.87227 12.3533 5.0722 11.152L10.3522 5.872C11.5535 4.67208 13.1823 3.99867 14.8802 4H22.3362C24.0341 3.99867 25.6629 4.67208 26.8642 5.872ZM30.2402 25.808C30.9409 25.0968 31.3271 24.1343 31.3122 23.136V15.632C31.3143 14.6503 30.9291 13.7074 30.2402 13.008L25.0082 7.776C24.2853 7.06322 23.303 6.67608 22.2882 6.704H14.8322C13.8505 6.70191 12.9076 7.08712 12.2082 7.776L6.9762 13.008C6.27549 13.7192 5.88932 14.6817 5.9042 15.68V23.184C5.9021 24.1657 6.28731 25.1086 6.9762 25.808L12.2082 31.04C12.9194 31.7407 13.8819 32.1269 14.8802 32.112H22.3842C23.3659 32.1141 24.3088 31.7289 25.0082 31.04L30.2402 25.808Z" fill="white"/>
<path d="M18.6082 22.384C17.9455 22.384 17.4082 22.9213 17.4082 23.584C17.4082 24.2467 17.9455 24.784 18.6082 24.784C19.2709 24.784 19.8082 24.2467 19.8082 23.584C19.8082 22.9213 19.2709 22.384 18.6082 22.384Z" fill="white"/>
<path d="M18.6082 20.192C19.2673 20.1834 19.7996 19.6511 19.8082 18.992V14.032C19.8082 13.3693 19.2709 12.832 18.6082 12.832C17.9455 12.832 17.4082 13.3693 17.4082 14.032V18.992C17.4168 19.6511 17.9491 20.1834 18.6082 20.192Z" fill="white"/>
</svg>
