<svg width="25" height="25" viewBox="0 0 25 25" fill="none" xmlns="http://www.w3.org/2000/svg">
<path d="M17 8.66H8C7.58579 8.66 7.25 8.99579 7.25 9.41C7.25 9.82421 7.58579 10.16 8 10.16H17C17.4142 10.16 17.75 9.82421 17.75 9.41C17.75 8.99579 17.4142 8.66 17 8.66Z" fill="black"/>
<path fill-rule="evenodd" clip-rule="evenodd" d="M17.39 4.07H17.5C20.2614 4.07 22.5 6.30858 22.5 9.07V18.07C22.5 20.8314 20.2614 23.07 17.5 23.07H7.5C6.17392 23.07 4.90215 22.5432 3.96447 21.6055C3.02678 20.6679 2.5 19.3961 2.5 18.07V9.07C2.5 6.30858 4.73858 4.07 7.5 4.07H7.59V2.25C7.59 1.83579 7.92579 1.5 8.34 1.5C8.75421 1.5 9.09 1.83579 9.09 2.25V4.07H15.89V2.25C15.89 1.83579 16.2258 1.5 16.64 1.5C17.0542 1.5 17.39 1.83579 17.39 2.25V4.07ZM17.5 21.57C19.433 21.57 21 20.003 21 18.07V9.07C21 7.137 19.433 5.57 17.5 5.57H7.5C5.567 5.57 4 7.137 4 9.07V18.07C4 20.003 5.567 21.57 7.5 21.57H17.5Z" fill="black"/>
</svg>
