<svg width="13" height="14" viewBox="0 0 13 14" fill="none" xmlns="http://www.w3.org/2000/svg">
<path d="M6.74136 7.00397L10.6303 3.12821C10.7928 2.96421 10.7928 2.69853 10.6303 2.53453C10.4707 2.3676 10.2071 2.36258 10.0414 2.52333L6.15247 6.39908L2.31355 2.52333C2.23484 2.4394 2.12533 2.39185 2.01077 2.39185C1.8962 2.39185 1.78669 2.4394 1.70799 2.52333C1.56393 2.68178 1.56393 2.92496 1.70799 3.08341L5.54691 6.95356L1.65799 10.8237C1.49551 10.9877 1.49551 11.2534 1.65799 11.4174C1.73534 11.4973 1.84172 11.5418 1.95244 11.5406C2.06529 11.5498 2.17716 11.5136 2.26355 11.4398L6.15247 7.56405L10.0414 11.4846C10.1187 11.5645 10.2251 11.609 10.3358 11.6078C10.4464 11.6083 10.5526 11.5639 10.6303 11.4846C10.7928 11.3206 10.7928 11.0549 10.6303 10.8909L6.74136 7.00397Z" fill="black"/>
</svg>
