<svg width="36" height="36" viewBox="0 0 36 36" fill="none" xmlns="http://www.w3.org/2000/svg">
<path fill-rule="evenodd" clip-rule="evenodd" d="M17.5255 13.4187H17.6551V13.4475C18.6019 13.4844 19.4741 13.9713 20.0023 14.7579C20.7142 15.7578 20.7142 17.0989 20.0023 18.0987C19.474 18.8873 18.6032 19.3788 17.6551 19.4235H17.5255C16.4032 19.5013 15.3313 18.9467 14.7465 17.9856C14.1617 17.0246 14.1617 15.8177 14.7465 14.8566C15.3313 13.8956 16.4032 13.341 17.5255 13.4187ZM18.2743 15.9675C18.1386 15.7497 17.9103 15.6063 17.6551 15.5787H17.5831C17.2559 15.5359 16.9334 15.6864 16.7561 15.9648C16.5788 16.2432 16.5788 16.5991 16.7561 16.8775C16.9334 17.1559 17.2559 17.3064 17.5831 17.2635H17.6551C17.9064 17.2353 18.1326 17.0985 18.2743 16.8891C18.4858 16.6183 18.4858 16.2384 18.2743 15.9675Z" fill="black"/>
<path d="M22.8967 20.9499C22.6629 20.951 22.4352 20.8751 22.2487 20.7339C22.0105 20.5708 21.8475 20.3192 21.7961 20.0351C21.7447 19.751 21.8092 19.4582 21.9751 19.2219C23.2308 17.5872 23.2308 15.3126 21.9751 13.6779C21.6743 13.2092 21.7735 12.5894 22.2055 12.2379C22.4351 12.0637 22.7254 11.9899 23.0102 12.0333C23.2951 12.0767 23.5503 12.2337 23.7175 12.4683C25.5417 14.8682 25.5417 18.1901 23.7175 20.5899C23.509 20.8232 23.2095 20.9545 22.8967 20.9499Z" fill="black"/>
<path d="M28.0231 25.0395C27.7852 25.0386 27.5535 24.963 27.3607 24.8235C27.1318 24.6471 26.9831 24.3864 26.9479 24.0995C26.9127 23.8126 26.994 23.5236 27.1735 23.2971C30.3137 19.2724 30.3137 13.6275 27.1735 9.60274C26.8558 9.14616 26.9368 8.5229 27.3607 8.16274C27.835 7.79691 28.5153 7.88034 28.8871 8.34994C32.6326 13.1542 32.6326 19.8897 28.8871 24.6939C28.6661 24.9337 28.3485 25.0607 28.0231 25.0395Z" fill="black"/>
<path d="M25.4743 22.9947C25.2512 22.9851 25.0358 22.91 24.8551 22.7787C24.4121 22.4351 24.3057 21.8095 24.6103 21.3387C26.8107 18.5099 26.8107 14.5484 24.6103 11.7195C24.2993 11.2559 24.3929 10.6315 24.8263 10.2795C25.2529 9.90394 25.8992 9.92928 26.2951 10.3371C27.6501 12.0894 28.3846 14.2421 28.3831 16.4571C28.3781 18.6711 27.6443 20.8218 26.2951 22.5771C26.0989 22.8335 25.797 22.9871 25.4743 22.9947Z" fill="black"/>
<path d="M12.3847 20.9499C12.0442 20.9522 11.7232 20.7917 11.5207 20.5179C9.69899 18.1119 9.69899 14.788 11.5207 12.3819C11.7522 12.0733 12.1308 11.9115 12.5139 11.9577C12.897 12.0038 13.2263 12.2509 13.3779 12.6057C13.5295 12.9605 13.4802 13.3693 13.2487 13.6779C11.9906 15.3172 11.9906 17.5971 13.2487 19.2363C13.5953 19.7193 13.493 20.3905 13.0183 20.7483C12.8315 20.8764 12.6111 20.9465 12.3847 20.9499Z" fill="black"/>
<path d="M7.27271 25.0395C6.93578 25.0408 6.61707 24.8867 6.40871 24.6219C2.66324 19.8177 2.66324 13.0822 6.40871 8.27794C6.78795 7.85657 7.42844 7.80014 7.87551 8.14871C8.32259 8.49728 8.42406 9.13219 8.10791 9.60274C4.97054 13.6338 4.97054 19.2804 8.10791 23.3115C8.4722 23.7812 8.38854 24.4569 7.92071 24.8235C7.73194 24.9602 7.50574 25.0356 7.27271 25.0395Z" fill="black"/>
<path d="M9.85031 22.9947C9.51338 22.996 9.19467 22.8419 8.98631 22.5771C7.6341 20.8179 6.90016 18.6616 6.89831 16.4427C6.90718 14.2291 7.65184 12.0812 9.01511 10.3371C9.24104 10.0083 9.62983 9.83087 10.0263 9.87559C10.4227 9.9203 10.7622 10.1799 10.9092 10.5508C11.0562 10.9216 10.9868 11.3433 10.7287 11.6475C8.52829 14.4764 8.52829 18.4379 10.7287 21.2667C10.8947 21.503 10.9591 21.7958 10.9077 22.0799C10.8563 22.364 10.6933 22.6156 10.4551 22.7787C10.2805 22.9112 10.0693 22.9866 9.85031 22.9947Z" fill="black"/>
<path d="M17.6551 29.0571C17.0619 29.0494 16.5829 28.5704 16.5751 27.9771V22.2171C16.5751 21.6207 17.0586 21.1371 17.6551 21.1371C18.2516 21.1371 18.7351 21.6207 18.7351 22.2171V27.9771C18.7274 28.5704 18.2483 29.0494 17.6551 29.0571Z" fill="black"/>
</svg>
