<svg width="20" height="20" viewBox="0 0 20 20" fill="none" xmlns="http://www.w3.org/2000/svg">
<path d="M9.872 7.64C8.63488 7.64 7.632 8.64288 7.632 9.88C7.632 11.1171 8.63488 12.12 9.872 12.12C11.1091 12.12 12.112 11.1171 12.112 9.88C12.1141 9.28526 11.8788 8.71427 11.4583 8.29372C11.0377 7.87318 10.4667 7.63786 9.872 7.64Z" fill="white"/>
<path fill-rule="evenodd" clip-rule="evenodd" d="M12.952 2H6.8C4.14903 2 2 4.14903 2 6.8V12.952C2 15.603 4.14903 17.752 6.8 17.752H12.952C15.603 17.752 17.752 15.603 17.752 12.952V6.8C17.752 4.14903 15.603 2 12.952 2ZM9.872 13.312C7.97838 13.3076 6.4444 11.7736 6.44 9.88C6.43676 8.4872 7.27371 7.22989 8.55987 6.69539C9.84603 6.1609 11.3276 6.4547 12.3124 7.43956C13.2973 8.42442 13.5911 9.90597 13.0566 11.1921C12.5221 12.4783 11.2648 13.3152 9.872 13.312ZM12.8599 5.92941C12.997 6.25597 13.3179 6.46723 13.672 6.464C14.1492 6.464 14.536 6.07717 14.536 5.6C14.5392 5.24587 14.328 4.92496 14.0014 4.78795C13.6749 4.65093 13.2979 4.72502 13.0474 4.97544C12.797 5.22585 12.7229 5.60285 12.8599 5.92941Z" fill="white"/>
</svg>
