<svg width="24" height="25" viewBox="0 0 24 25" fill="none" xmlns="http://www.w3.org/2000/svg">
<path d="M8.65 8.09C8.35449 7.81464 7.89399 7.82277 7.60838 8.10838C7.32277 8.39399 7.31464 8.85449 7.59 9.15L11.37 12.93V17.62C11.37 18.0342 11.7058 18.37 12.12 18.37C12.5342 18.37 12.87 18.0342 12.87 17.62V12.62C12.8698 12.4212 12.7907 12.2305 12.65 12.09L8.65 8.09Z" fill="black"/>
<path fill-rule="evenodd" clip-rule="evenodd" d="M10 2.5H14.24C16.3617 2.5 18.3966 3.34285 19.8969 4.84315C21.3971 6.34344 22.24 8.37827 22.24 10.5V14.74C22.24 19.1583 18.6583 22.74 14.24 22.74H10C5.58172 22.74 2 19.1583 2 14.74V10.5C2 6.08172 5.58172 2.5 10 2.5ZM14.24 21.24C17.8276 21.2345 20.7345 18.3276 20.74 14.74V10.5C20.7345 6.91243 17.8276 4.00551 14.24 4H10C6.41243 4.00551 3.50551 6.91243 3.5 10.5V14.74C3.50551 18.3276 6.41243 21.2345 10 21.24H14.24Z" fill="black"/>
</svg>
