<svg width="34" height="34" viewBox="0 0 34 34" fill="none" xmlns="http://www.w3.org/2000/svg">
<path fill-rule="evenodd" clip-rule="evenodd" d="M16.8 2.80003C12.1324 2.76707 8.25534 6.39275 7.97578 11.0521C7.69622 15.7114 11.112 19.7746 15.75 20.3V26.32C15.75 26.8999 16.2201 27.37 16.8 27.37C17.3799 27.37 17.85 26.8999 17.85 26.32V20.3C22.488 19.7746 25.9038 15.7114 25.6242 11.0521C25.3447 6.39275 21.4676 2.76707 16.8 2.80003ZM15.89 7.65803C14.2795 7.65801 12.9717 8.95951 12.964 10.57C12.964 11.1499 12.4939 11.62 11.914 11.62C11.3341 11.62 10.864 11.1499 10.864 10.57C10.8717 7.79971 13.1197 5.55802 15.89 5.55803C16.4699 5.55803 16.94 6.02813 16.94 6.60803C16.94 7.18793 16.4699 7.65803 15.89 7.65803Z" fill="black"/>
<path d="M22.148 22.106C22.4151 21.6013 23.033 21.3974 23.548 21.644C25.267 22.3061 26.4538 23.8957 26.6 25.732C26.6 28.826 22.4 31.164 16.8 31.164C11.2 31.164 7 28.826 7 25.732C7.17184 23.9218 8.35424 22.3652 10.052 21.714C10.57 21.4511 11.2031 21.658 11.466 22.176C11.7289 22.6941 11.522 23.3271 11.004 23.59C9.772 24.22 9.072 25.004 9.072 25.732C9.072 27.244 12.39 28.98 16.814 28.98C21.238 28.98 24.542 27.23 24.542 25.648C24.542 24.906 23.842 24.136 22.61 23.506C22.0992 23.2441 21.8934 22.6205 22.148 22.106Z" fill="black"/>
</svg>
