<svg width="20" height="20" viewBox="0 0 20 20" fill="none" xmlns="http://www.w3.org/2000/svg">
<path d="M3.072 4.1903C3.63608 4.82083 4.26336 5.39182 4.944 5.8943C5.57937 6.31534 6.26121 6.66164 6.976 6.9263C7.54942 7.13625 8.14138 7.2916 8.744 7.3903L9.544 7.4543C9.35048 6.58404 9.52411 5.67249 10.024 4.9343C10.5454 4.2254 11.3236 3.74873 12.192 3.6063C12.844 3.56889 13.4945 3.7012 14.08 3.9903C14.816 4.4223 14.88 4.5823 14.88 4.5823C15.3157 4.50364 15.7402 4.37199 16.144 4.1903L16.832 3.8223C16.711 4.23722 16.4946 4.61806 16.2 4.9343C15.808 5.2943 15.448 5.5583 15.448 5.5583C15.8038 5.55366 16.1559 5.48595 16.488 5.3583L17.288 5.0703C17.0266 5.44982 16.7263 5.80105 16.392 6.1183C16.008 6.4223 15.696 6.7023 15.696 6.7023C15.7925 8.33615 15.4176 9.96333 14.616 11.3903C14.0143 12.5509 13.1484 13.5538 12.088 14.3183C11.0564 15.0707 9.87048 15.5844 8.616 15.8223C7.63964 16.0007 6.64248 16.0357 5.656 15.9263C4.86432 15.8059 4.08875 15.5966 3.344 15.3023C2.85675 15.1479 2.40142 14.9067 2 14.5903C2.91747 14.7166 3.85177 14.6262 4.728 14.3263C5.40274 14.062 6.04225 13.7154 6.632 13.2943C6.18536 13.2904 5.74526 13.1865 5.344 12.9903C4.84773 12.7559 4.42461 12.3909 4.12 11.9343C3.99038 11.7391 3.87796 11.533 3.784 11.3183L3.728 11.1183C3.94502 11.1717 4.1691 11.1906 4.392 11.1743L5.128 11.0623C4.48909 10.9432 3.90715 10.617 3.472 10.1343C3.00092 9.62533 2.71856 8.97025 2.672 8.2783V7.9503C2.91972 8.09929 3.18986 8.20734 3.472 8.2703C3.66446 8.3246 3.86414 8.34889 4.064 8.3423C3.45069 7.9492 2.99703 7.35093 2.784 6.6543C2.54478 5.82765 2.64859 4.93949 3.072 4.1903Z" fill="black"/>
</svg>
