<svg width="20" height="20" viewBox="0 0 20 20" fill="none" xmlns="http://www.w3.org/2000/svg">
<path d="M3.072 4.19006C3.63608 4.82059 4.26336 5.39158 4.944 5.89406C5.57937 6.3151 6.26121 6.66139 6.976 6.92605C7.54942 7.13601 8.14138 7.29136 8.744 7.39005L9.544 7.45406C9.35048 6.58379 9.52411 5.67224 10.024 4.93406C10.5454 4.22515 11.3236 3.74849 12.192 3.60606C12.844 3.56865 13.4945 3.70095 14.08 3.99006C14.816 4.42206 14.88 4.58206 14.88 4.58206C15.3157 4.50339 15.7402 4.37175 16.144 4.19006L16.832 3.82206C16.711 4.23698 16.4946 4.61781 16.2 4.93406C15.808 5.29406 15.448 5.55806 15.448 5.55806C15.8038 5.55342 16.1559 5.4857 16.488 5.35806L17.288 5.07006C17.0266 5.44957 16.7263 5.8008 16.392 6.11806C16.008 6.42206 15.696 6.70205 15.696 6.70205C15.7925 8.33591 15.4176 9.96309 14.616 11.3901C14.0143 12.5506 13.1484 13.5536 12.088 14.3181C11.0564 15.0705 9.87048 15.5842 8.616 15.8221C7.63964 16.0004 6.64248 16.0355 5.656 15.9261C4.86432 15.8057 4.08875 15.5963 3.344 15.3021C2.85675 15.1477 2.40142 14.9065 2 14.5901C2.91747 14.7164 3.85177 14.6259 4.728 14.3261C5.40274 14.0618 6.04225 13.7151 6.632 13.2941C6.18536 13.2901 5.74526 13.1863 5.344 12.9901C4.84773 12.7557 4.42461 12.3906 4.12 11.9341C3.99038 11.7388 3.87796 11.5327 3.784 11.3181L3.728 11.1181C3.94502 11.1715 4.1691 11.1904 4.392 11.1741L5.128 11.0621C4.48909 10.9429 3.90715 10.6168 3.472 10.1341C3.00092 9.62509 2.71856 8.97001 2.672 8.27805V7.95006C2.91972 8.09905 3.18986 8.2071 3.472 8.27006C3.66446 8.32436 3.86414 8.34865 4.064 8.34205C3.45069 7.94895 2.99703 7.35069 2.784 6.65406C2.54478 5.82741 2.64859 4.93925 3.072 4.19006Z" fill="white"/>
</svg>
