<svg width="28" height="27" viewBox="0 0 28 27" fill="none" xmlns="http://www.w3.org/2000/svg">
<path d="M13.6278 18.5847L9.45021 14.4183C9.27307 14.2418 9.1735 14.002 9.1735 13.7519C9.1735 13.5018 9.27307 13.262 9.45021 13.0855C9.82276 12.7285 10.4105 12.7285 10.783 13.0855L13.3478 15.6615V4.36072C13.3478 3.84113 13.769 3.41992 14.2886 3.41992C14.8082 3.41992 15.2294 3.84113 15.2294 4.36072V15.6615L17.7942 13.0855C18.1668 12.7285 18.7545 12.7285 19.127 13.0855C19.3041 13.262 19.4037 13.5018 19.4037 13.7519C19.4037 14.002 19.3041 14.2418 19.127 14.4183L14.9494 18.5847C14.777 18.7649 14.538 18.8662 14.2886 18.8647C14.0387 18.8689 13.7986 18.7672 13.6278 18.5847Z" fill="white"/>
<path d="M20.135 9.49032H21.4902C24.3084 9.55156 26.5466 11.8799 26.4966 14.6983V18.9655C26.5466 21.7839 24.3084 24.1123 21.4902 24.1735L7.08702 24.0839C4.26883 24.0227 2.0306 21.6943 2.08062 18.8759V14.6087C2.04757 13.2492 2.55688 11.9325 3.49616 10.9491C4.43543 9.96567 5.72744 9.39648 7.08702 9.36712H8.44222C8.9618 9.36712 9.38302 9.78833 9.38302 10.3079C9.38302 10.8275 8.9618 11.2487 8.44222 11.2487H7.08702C6.22535 11.2749 5.41001 11.6449 4.82294 12.2762C4.23586 12.9074 3.9259 13.7474 3.96222 14.6087V18.8423C3.9259 19.7036 4.23586 20.5436 4.82294 21.1749C5.41001 21.8061 6.22535 22.1761 7.08702 22.2023L21.4902 22.3591C22.3519 22.3329 23.1672 21.9629 23.7543 21.3317C24.3414 20.7004 24.6513 19.8604 24.615 18.9991V14.7319C24.6513 13.8706 24.3414 13.0306 23.7543 12.3994C23.1672 11.7681 22.3519 11.3981 21.4902 11.3719H20.135C19.6154 11.3719 19.1942 10.9507 19.1942 10.4311C19.1942 9.91153 19.6154 9.49032 20.135 9.49032Z" fill="white"/>
</svg>
