<svg width="20" height="20" viewBox="0 0 20 20" fill="none" xmlns="http://www.w3.org/2000/svg">
<path d="M9.44829 13.6318L6.46429 10.6558C6.33776 10.5297 6.26664 10.3584 6.26664 10.1798C6.26664 10.0012 6.33776 9.8299 6.46429 9.7038C6.7304 9.44881 7.15018 9.44881 7.41629 9.7038L9.24829 11.5438V3.4718C9.24829 3.10067 9.54916 2.7998 9.92029 2.7998C10.2914 2.7998 10.5923 3.10067 10.5923 3.4718V11.5438L12.4243 9.7038C12.6904 9.44881 13.1102 9.44881 13.3763 9.7038C13.5028 9.8299 13.5739 10.0012 13.5739 10.1798C13.5739 10.3584 13.5028 10.5297 13.3763 10.6558L10.3923 13.6318C10.2691 13.7605 10.0984 13.8329 9.92029 13.8318C9.74177 13.8348 9.57031 13.7622 9.44829 13.6318Z" fill="white"/>
<path d="M14.0963 7.1358H15.0643C17.0773 7.17955 18.676 8.84265 18.6403 10.8558V13.9038C18.676 15.917 17.0773 17.5801 15.0643 17.6238L4.7763 17.5598C2.76331 17.5161 1.16458 15.853 1.2003 13.8398V10.7918C1.17669 9.82074 1.54049 8.8802 2.2114 8.17777C2.88231 7.47534 3.80517 7.06877 4.7763 7.0478H5.7443C6.11544 7.0478 6.4163 7.34867 6.4163 7.7198C6.4163 8.09094 6.11544 8.39181 5.7443 8.39181H4.7763C4.16082 8.4105 3.57844 8.67479 3.1591 9.12569C2.73976 9.57659 2.51836 10.1766 2.5443 10.7918V13.8158C2.51836 14.431 2.73976 15.031 3.1591 15.4819C3.57844 15.9328 4.16082 16.1971 4.7763 16.2158L15.0643 16.3278C15.6798 16.3091 16.2622 16.0448 16.6815 15.5939C17.1008 15.143 17.3222 14.543 17.2963 13.9278V10.8798C17.3222 10.2646 17.1008 9.66459 16.6815 9.21369C16.2622 8.76279 15.6798 8.4985 15.0643 8.4798H14.0963C13.7252 8.4798 13.4243 8.17894 13.4243 7.80781C13.4243 7.43667 13.7252 7.1358 14.0963 7.1358Z" fill="white"/>
</svg>
