<svg width="35" height="35" viewBox="0 0 35 35" fill="none" xmlns="http://www.w3.org/2000/svg">
<path fill-rule="evenodd" clip-rule="evenodd" d="M30.3045 14.3781C29.5389 14.2448 28.7633 14.1774 27.9861 14.1765C24.3211 14.1765 20.8064 15.6334 18.2162 18.2263C15.6259 20.8193 14.1727 24.3355 14.1765 28.0005C14.1702 28.7732 14.2377 29.5447 14.3781 30.3045C7.44836 29.1279 2.50801 22.9339 2.90186 15.916C3.29571 8.89809 8.89809 3.29571 15.916 2.90186C22.9339 2.50801 29.1279 7.44836 30.3045 14.3781ZM14.2917 5.25223C8.88383 6.39166 5.01791 11.1699 5.03253 16.6965C5.01961 21.3369 7.77192 25.539 12.0309 27.3813C12.3403 19.0278 19.0287 12.3206 27.3813 11.9877C25.1648 6.92503 19.6996 4.11281 14.2917 5.25223Z" fill="white"/>
<path fill-rule="evenodd" clip-rule="evenodd" d="M28.2885 15.9045C28.969 15.9036 29.6484 15.9614 30.3189 16.0773C30.4467 16.7513 30.5094 17.4361 30.5061 18.1221C30.5061 21.3556 29.2206 24.4564 26.9329 26.7415C24.6451 29.0265 21.5428 30.3083 18.3093 30.3045C17.6288 30.3054 16.9495 30.2476 16.2789 30.1317C16.1553 29.4573 16.0974 28.7725 16.1061 28.0869C16.1061 21.3587 21.5604 15.9045 28.2885 15.9045ZM28.3893 18.0645C22.8223 18.0645 18.3093 22.5775 18.3093 28.1445C20.9827 28.1445 23.5466 27.0825 25.437 25.1921C27.3273 23.3018 28.3893 20.7379 28.3893 18.0645Z" fill="white"/>
<path d="M28.3893 18.0645C22.8223 18.0645 18.3093 22.5775 18.3093 28.1445C20.9827 28.1445 23.5466 27.0825 25.437 25.1921C27.3273 23.3018 28.3893 20.7379 28.3893 18.0645Z" fill="white"/>
</svg>
