<svg width="26" height="26" viewBox="0 0 26 26" fill="none" xmlns="http://www.w3.org/2000/svg">
<g clip-path="url(#clip0_1248_16458)">
<path d="M19.176 9.09404C16.2854 7.47726 11.6458 4.88109 4.44953 0.851702C3.96436 0.531281 3.40614 0.489291 2.92383 0.652538L15.2707 12.9994L19.176 9.09404Z" fill="#32BBFF"/>
<path d="M2.9228 0.652832C2.83241 0.68345 2.74444 0.720386 2.66031 0.765001C2.1277 1.0531 1.73633 1.60748 1.73633 2.30864V23.6907C1.73633 24.3919 2.12766 24.9463 2.66031 25.2343C2.74429 25.2789 2.83221 25.316 2.92251 25.3468L15.2697 12.9997L2.9228 0.652832Z" fill="#32BBFF"/>
<path d="M15.271 12.9993L2.92383 25.3464C3.40628 25.5108 3.9645 25.472 4.44982 25.147C11.4287 21.239 16.016 18.6736 18.94 17.0431C19.0214 16.9974 19.1012 16.9526 19.18 16.9084L15.271 12.9993Z" fill="#32BBFF"/>
<path d="M1.7373 12.9985V23.6896C1.7373 24.3907 2.12863 24.9451 2.66129 25.2332C2.74527 25.2777 2.83319 25.3148 2.92349 25.3456L15.2706 12.9985H1.7373Z" fill="#2C9FD9"/>
<path d="M4.4503 0.851062C3.87415 0.470621 3.19472 0.481459 2.66211 0.764117L15.0841 13.1861L19.1768 9.0934C16.2862 7.47662 11.6466 4.88045 4.4503 0.851062Z" fill="#29CC5E"/>
<path d="M15.0841 12.8113L2.66211 25.2332C3.19477 25.5158 3.87415 25.5322 4.4503 25.1463C11.4292 21.2383 16.0164 18.6729 18.9405 17.0424C19.0219 16.9967 19.1017 16.952 19.1805 16.9077L15.0841 12.8113Z" fill="#D93F21"/>
<path d="M24.3311 12.999C24.3311 12.4066 24.0321 11.8087 23.4396 11.4772C23.4396 11.4772 22.3316 10.8589 18.9353 8.95923L14.8955 12.999L18.9392 17.0428C22.2983 15.1568 23.4396 14.5208 23.4396 14.5208C24.0321 14.1893 24.3311 13.5915 24.3311 12.999Z" fill="#FFD500"/>
<path d="M23.4396 14.5206C24.0321 14.1891 24.3311 13.5912 24.3311 12.9988H14.8955L18.9392 17.0426C22.2983 15.1566 23.4396 14.5206 23.4396 14.5206Z" fill="#FFAA00"/>
</g>
<defs>
<clipPath id="clip0_1248_16458">
<rect width="24.8832" height="24.8832" fill="white" transform="translate(0.591797 0.55835)"/>
</clipPath>
</defs>
</svg>
