<svg width="710" height="591" viewBox="0 0 710 591" fill="none" xmlns="http://www.w3.org/2000/svg">
<path fill-rule="evenodd" clip-rule="evenodd" d="M95 11C97.7614 11 100 8.76142 100 6C100 3.23858 97.7614 1 95 1C92.2386 1 90 3.23858 90 6C90 8.76142 92.2386 11 95 11ZM95 12C98.3137 12 101 9.31371 101 6C101 2.68629 98.3137 0 95 0C91.6863 0 89 2.68629 89 6C89 7.53428 89.5759 8.93406 90.5233 9.99496C89.6305 11.0215 88.7441 12.0528 87.8641 13.0888L88.2452 13.4125L89.0073 14.0599L89.3884 14.3836C90.281 13.3329 91.1801 12.287 92.0858 11.246C92.9487 11.7264 93.9424 12 95 12ZM620.408 11.0704C621.405 12.2259 622.394 13.3874 623.374 14.5547L622.991 14.8763L622.226 15.5195L621.843 15.8411C620.845 14.6531 619.838 13.4711 618.824 12.2954C617.982 12.7451 617.021 13 616 13C612.686 13 610 10.3137 610 7C610 3.68629 612.686 1 616 1C619.314 1 622 3.68629 622 7C622 8.57094 621.396 10.0009 620.408 11.0704ZM75.3369 28.7208C77.348 26.0588 79.3987 23.4234 81.4885 20.8157L81.8787 21.1283L82.659 21.7537L83.0492 22.0664C80.9713 24.6592 78.9323 27.2796 76.9327 29.9264L76.5337 29.625L75.7358 29.0222L75.3369 28.7208ZM629.707 22.3163C631.783 24.9354 633.819 27.582 635.816 30.255L635.415 30.5542L634.614 31.1526L634.213 31.4518C632.228 28.7941 630.203 26.1626 628.14 23.5584L628.532 23.2479L629.315 22.6268L629.707 22.3163ZM63.7227 45.0437C65.579 42.2704 67.4758 39.522 69.4129 36.7996L69.8203 37.0895L70.6351 37.6692L71.0425 37.9591C69.1165 40.666 67.2304 43.3986 65.3848 46.1561L64.9693 45.878L64.1383 45.3218L63.7227 45.0437ZM641.695 38.3661C643.617 41.0991 645.499 43.8578 647.34 46.6412L646.923 46.917L646.089 47.4687L645.672 47.7445C643.842 44.977 641.971 42.2341 640.059 39.5166L640.468 39.229L641.286 38.6537L641.695 38.3661ZM53.0604 62.0033C54.7555 59.1278 56.4923 56.2755 58.2704 53.4473L58.6937 53.7134L59.5403 54.2457L59.9636 54.5118C58.1957 57.3238 56.4688 60.1598 54.7833 63.019L54.3526 62.765L53.4911 62.2572L53.0604 62.0033ZM652.746 55.0745C654.509 57.9124 656.23 60.7742 657.91 63.6589L657.477 63.9105L656.613 64.4136L656.181 64.6652C654.511 61.7968 652.8 58.9514 651.047 56.1297L651.472 55.8659L652.322 55.3383L652.746 55.0745ZM43.3845 79.5442C44.9129 76.5759 46.484 73.629 48.0972 70.7044L48.535 70.9459L49.4106 71.4289L49.8485 71.6704C48.2444 74.5783 46.6823 77.5084 45.1626 80.4598L44.7181 80.2309L43.829 79.7731L43.3845 79.5442ZM662.825 72.3871C664.422 75.3205 665.977 78.276 667.489 81.2526L667.043 81.479L666.152 81.9319L665.706 82.1584C664.203 79.1988 662.657 76.2601 661.068 73.3435L661.508 73.1044L662.386 72.6262L662.825 72.3871ZM34.7265 97.6092C36.0831 94.5579 37.4832 91.5261 38.9264 88.5148L39.3773 88.7309L40.2791 89.1631L40.73 89.3792C39.295 92.3734 37.9029 95.3878 36.554 98.4217L36.0971 98.2186L35.1834 97.8124L34.7265 97.6092ZM671.898 90.2475C673.325 93.2666 674.708 96.306 676.048 99.3647L675.59 99.5654L674.674 99.9666L674.216 100.167C672.884 97.126 671.508 94.1039 670.09 91.102L670.542 90.8884L671.446 90.4611L671.898 90.2475ZM27.1145 116.14C28.2948 113.015 29.5195 109.908 30.7881 106.82L31.2506 107.01L32.1756 107.39L32.6381 107.58C31.3768 110.65 30.1591 113.74 28.9855 116.846L28.5177 116.67L27.5823 116.316L27.1145 116.14ZM679.936 108.597C681.188 111.692 682.395 114.805 683.559 117.936L683.09 118.111L682.153 118.459L681.684 118.633C680.527 115.52 679.327 112.424 678.082 109.347L678.546 109.159L679.473 108.784L679.936 108.597ZM20.5737 135.074C21.5738 131.887 22.619 128.715 23.7089 125.56L24.1814 125.723L25.1266 126.05L25.5992 126.213C24.5156 129.35 23.4763 132.504 22.482 135.673L22.0049 135.523L21.0508 135.224L20.5737 135.074ZM686.913 127.375C687.985 130.536 689.013 133.714 689.996 136.907L689.518 137.054L688.562 137.348L688.084 137.495C687.107 134.32 686.085 131.161 685.019 128.018L685.492 127.857L686.439 127.536L686.913 127.375ZM15.1254 154.352C15.9419 151.112 16.8041 147.885 17.7117 144.674L18.1929 144.81L19.1552 145.082L19.6364 145.218C18.7339 148.411 17.8766 151.619 17.0648 154.84L16.5799 154.718L15.6103 154.474L15.1254 154.352ZM692.805 146.522C693.695 149.738 694.54 152.969 695.338 156.213L694.853 156.333L693.882 156.572L693.396 156.692C692.602 153.466 691.762 150.253 690.878 147.055L691.359 146.922L692.323 146.655L692.805 146.522ZM10.7875 173.909C11.4176 170.627 12.0941 167.357 12.8165 164.1L13.3047 164.208L14.2809 164.425L14.7691 164.533C14.0507 167.772 13.3781 171.023 12.7516 174.286L12.2606 174.192L11.2785 174.003L10.7875 173.909ZM697.594 165.974C698.298 169.235 698.957 172.509 699.569 175.794L699.078 175.886L698.095 176.069L697.603 176.161C696.994 172.894 696.34 169.639 695.639 166.397L696.128 166.291L697.105 166.08L697.594 165.974ZM8.27111 188.723C8.51553 187.07 8.77163 185.42 9.03937 183.773L9.53289 183.853L10.5199 184.013L11.0135 184.094C10.7473 185.732 10.4926 187.372 10.2496 189.016C10.0066 190.659 9.77542 192.303 9.55612 193.948L9.0605 193.882L8.06927 193.75L7.57366 193.684C7.79421 192.029 8.02669 190.376 8.27111 188.723ZM701.263 185.668C701.522 187.316 701.769 188.968 702.004 190.622C702.24 192.276 702.463 193.931 702.675 195.586L702.179 195.65L701.187 195.776L700.691 195.84C700.481 194.194 700.258 192.548 700.024 190.904C699.79 189.259 699.545 187.617 699.287 185.978L699.781 185.9L700.769 185.745L701.263 185.668ZM5.53999 213.017C5.78168 209.887 6.0656 206.759 6.39187 203.631L6.88917 203.683L7.88377 203.787L8.38107 203.839C8.05576 206.957 7.77279 210.077 7.53205 213.197C10.1036 213.875 12 216.216 12 219C12 222.034 9.74843 224.542 6.82518 224.944C6.69958 227.848 6.6104 230.752 6.55754 233.655L6.05762 233.646L5.05779 233.628L4.55787 233.619C4.61087 230.708 4.70016 227.797 4.82584 224.885C2.07429 224.339 0 221.912 0 219C0 215.841 2.44121 213.252 5.53999 213.017ZM6.87075 223.924L6.88116 223.701L6.3817 223.677L5.3828 223.631L4.88335 223.607L4.87104 223.872C2.65336 223.36 1 221.373 1 219C1 216.239 3.23858 214 6 214C8.76142 214 11 216.239 11 219C11 221.464 9.21708 223.512 6.87075 223.924ZM703.802 205.54C704.131 208.866 704.411 212.193 704.644 215.522L704.146 215.556L703.148 215.626L702.649 215.661C702.418 212.352 702.138 209.044 701.812 205.737L702.309 205.688L703.304 205.59L703.802 205.54ZM705.201 225.524C705.334 228.743 705.423 231.963 705.467 235.181C708.072 235.835 710 238.192 710 241C710 243.82 708.055 246.185 705.434 246.828C705.377 249.743 705.284 252.657 705.154 255.568L704.655 255.546L703.656 255.501L703.156 255.479C703.282 252.646 703.374 249.811 703.43 246.973C700.384 246.686 698 244.122 698 241C698 237.867 700.402 235.294 703.465 235.024C703.42 231.885 703.333 228.746 703.203 225.607L703.702 225.586L704.702 225.545L705.201 225.524ZM709 241C709 243.256 707.505 245.163 705.452 245.786L705.456 245.555L704.956 245.547L703.956 245.531L703.456 245.523C703.454 245.672 703.452 245.821 703.449 245.97C700.947 245.696 699 243.575 699 241C699 238.239 701.239 236 704 236C706.761 236 709 238.239 709 241ZM4.76578 253.651C4.63576 250.315 4.55334 246.977 4.51867 243.636L5.01864 243.631L6.01859 243.621L6.51856 243.616C6.55304 246.937 6.63499 250.256 6.76427 253.573L6.26465 253.592L5.2654 253.631L4.76578 253.651ZM6.11782 273.638C5.79739 270.314 5.52439 266.986 5.29897 263.654L5.79783 263.62L6.79555 263.552L7.29441 263.519C7.51854 266.832 7.78998 270.141 8.10858 273.446L7.61089 273.494L6.61551 273.59L6.11782 273.638ZM704.566 265.568C704.323 268.899 704.031 272.226 703.693 275.547L703.195 275.496L702.201 275.395L701.703 275.344C702.04 272.042 702.329 268.734 702.572 265.422L703.07 265.458L704.068 265.531L704.566 265.568ZM8.60944 293.515C8.09959 290.215 7.63693 286.907 7.2216 283.594L7.71772 283.532L8.70995 283.407L9.20607 283.345C9.61903 286.64 10.0791 289.928 10.586 293.209L10.0919 293.286L9.10357 293.438L8.60944 293.515ZM702.535 285.497C702.101 288.808 701.62 292.113 701.092 295.41L700.599 295.331L699.611 295.173L699.118 295.094C699.642 291.816 700.12 288.53 700.551 285.238L701.047 285.303L702.039 285.432L702.535 285.497ZM12.2325 313.217C11.5348 309.951 10.884 306.675 10.2802 303.392L10.7719 303.301L11.7554 303.12L12.2472 303.03C12.8476 306.295 13.4947 309.552 14.1884 312.799L13.6994 312.904L12.7215 313.113L12.2325 313.217ZM699.368 305.278C698.746 308.558 698.077 311.83 697.362 315.093L696.873 314.986L695.896 314.771L695.408 314.664C696.119 311.42 696.784 308.167 697.403 304.906L697.894 304.999L698.876 305.185L699.368 305.278ZM16.9752 332.68C16.0919 329.458 15.255 326.226 14.4648 322.982L14.9505 322.864L15.9221 322.627L16.4079 322.509C17.1936 325.734 18.0257 328.948 18.904 332.151L18.4218 332.284L17.4574 332.548L16.9752 332.68ZM695.076 324.846C694.268 328.084 693.413 331.313 692.512 334.529L692.031 334.395L691.068 334.125L690.586 333.99C691.482 330.792 692.332 327.582 693.135 324.361L693.62 324.482L694.591 324.724L695.076 324.846ZM22.8222 351.84C21.756 348.674 20.7359 345.494 19.7618 342.302L20.24 342.156L21.1965 341.865L21.6747 341.719C22.6432 344.892 23.6576 348.054 24.7176 351.202L24.2438 351.362L23.296 351.681L22.8222 351.84ZM689.673 344.136C688.682 347.323 687.644 350.497 686.561 353.657L686.088 353.495L685.142 353.171L684.669 353.009C685.746 349.866 686.778 346.71 687.763 343.542L688.241 343.69L689.196 343.987L689.673 344.136ZM29.7544 370.635C28.5089 367.534 27.3088 364.418 26.1542 361.288L26.6233 361.115L27.5615 360.769L28.0307 360.596C29.1786 363.708 30.3719 366.807 31.6103 369.89L31.1463 370.076L30.2184 370.449L29.7544 370.635ZM683.177 363.087C682.005 366.21 680.788 369.32 679.526 372.414L679.063 372.225L678.137 371.847L677.674 371.658C678.929 368.582 680.139 365.49 681.304 362.384L681.772 362.56L682.709 362.911L683.177 363.087ZM35.6526 384.456C34.964 382.934 34.2867 381.407 33.6206 379.877L34.0791 379.677L34.996 379.278L35.4545 379.079C36.1167 380.6 36.7902 382.118 37.4748 383.632C38.1595 385.145 38.8546 386.653 39.5601 388.155L39.1075 388.368L38.2024 388.793L37.7498 389.005C37.0403 387.495 36.3412 385.978 35.6526 384.456ZM675.609 381.634C674.934 383.161 674.249 384.684 673.552 386.202C672.855 387.72 672.148 389.233 671.43 390.74L670.978 390.525L670.076 390.095L669.624 389.88C670.338 388.381 671.041 386.877 671.734 385.368C672.427 383.858 673.109 382.344 673.779 380.826L674.237 381.028L675.151 381.432L675.609 381.634ZM46.7805 406.886C45.1919 403.953 43.6441 400.994 42.1376 398.011L42.5839 397.785L43.4765 397.335L43.9228 397.109C45.4207 400.075 46.9597 403.017 48.5392 405.934L48.0995 406.172L47.2201 406.648L46.7805 406.886ZM666.993 399.721C665.47 402.696 663.906 405.646 662.301 408.571L661.863 408.331L660.986 407.85L660.548 407.609C662.143 404.701 663.698 401.767 665.212 398.81L665.658 399.038L666.548 399.493L666.993 399.721ZM56.8185 424.223C55.0644 421.384 53.35 418.518 51.6758 415.627L52.1085 415.376L52.9739 414.875L53.4066 414.625C55.0712 417.5 56.7759 420.349 58.5199 423.172L58.0946 423.435L57.2438 423.96L56.8185 424.223ZM657.358 417.285C655.668 420.167 653.938 423.023 652.169 425.853L651.745 425.588L650.897 425.057L650.473 424.792C652.232 421.979 653.953 419.139 655.633 416.273L656.064 416.526L656.927 417.032L657.358 417.285ZM71.5 438.5C70.5882 438.5 69.7239 438.703 68.9501 439.067C67.2268 436.591 65.5352 434.092 63.8756 431.57L63.4579 431.845L62.6226 432.394L62.2049 432.669C63.8736 435.205 65.5746 437.718 67.3073 440.208C66.1922 441.297 65.5 442.818 65.5 444.5C65.5 447.814 68.1863 450.5 71.5 450.5C72.4915 450.5 73.4268 450.259 74.2508 449.834C76.0632 452.259 77.9066 454.66 79.7806 457.036L80.1732 456.726L80.9584 456.107L81.351 455.797C79.4868 453.433 77.6529 451.045 75.8499 448.633C76.8725 447.557 77.5 446.102 77.5 444.5C77.5 441.186 74.8137 438.5 71.5 438.5ZM74.1479 448.742L74.7923 448.263C75.839 447.347 76.5 446.001 76.5 444.5C76.5 441.739 74.2614 439.5 71.5 439.5C68.7386 439.5 66.5 441.739 66.5 444.5C66.5 447.261 68.7386 449.5 71.5 449.5C72.4725 449.5 73.3801 449.222 74.1479 448.742ZM639.881 440.736C639.026 440.267 638.044 440 637 440C633.686 440 631 442.686 631 446C631 447.71 631.715 449.252 632.862 450.345C631.092 452.684 629.292 455 627.463 457.292L627.854 457.604L628.636 458.228L629.027 458.539C630.888 456.205 632.72 453.847 634.522 451.466C635.277 451.809 636.116 452 637 452C640.314 452 643 449.314 643 446C643 444.453 642.414 443.042 641.453 441.978C643.247 439.433 645.009 436.863 646.736 434.269L646.32 433.992L645.487 433.438L645.071 433.161C643.374 435.709 641.644 438.235 639.881 440.736ZM635.142 450.643C635.716 450.873 636.344 451 637 451C639.761 451 642 448.761 642 446C642 443.239 639.761 441 637 441C634.239 441 632 443.239 632 446C632 447.383 632.562 448.635 633.469 449.54L633.562 449.417L633.962 449.718L634.761 450.318L635.161 450.619L635.142 450.643ZM92.6296 472.405C90.4155 469.905 88.2371 467.374 86.0953 464.812L86.4789 464.491L87.2461 463.85L87.6297 463.529C89.7593 466.077 91.9252 468.593 94.1268 471.079L93.7525 471.41L93.0039 472.073L92.6296 472.405ZM622.67 466.281C620.514 468.831 618.322 471.35 616.094 473.838L615.722 473.504L614.977 472.837L614.604 472.503C616.819 470.03 618.999 467.525 621.143 464.99L621.524 465.313L622.288 465.958L622.67 466.281ZM106.336 487.015C103.982 484.645 101.663 482.243 99.3782 479.808L99.7429 479.466L100.472 478.782L100.837 478.439C103.108 480.86 105.414 483.249 107.755 485.606L107.4 485.958L106.691 486.663L106.336 487.015ZM609.305 481.204C607.008 483.626 604.675 486.016 602.308 488.373L601.955 488.018L601.25 487.31L600.897 486.955C603.25 484.612 605.57 482.236 607.854 479.827L608.217 480.171L608.942 480.86L609.305 481.204ZM120.854 500.818C118.368 498.586 115.915 496.32 113.496 494.02L113.841 493.658L114.53 492.933L114.874 492.571C117.28 494.858 119.718 497.111 122.19 499.33L121.856 499.702L121.188 500.446L120.854 500.818ZM595.11 495.339C592.678 497.625 590.213 499.878 587.715 502.096L587.383 501.722L586.719 500.974L586.387 500.6C588.87 498.395 591.322 496.155 593.739 493.881L594.082 494.246L594.767 494.974L595.11 495.339ZM136.137 513.769C133.527 511.683 130.949 509.56 128.403 507.403L128.726 507.021L129.373 506.258L129.696 505.877C132.228 508.022 134.791 510.132 137.386 512.207L137.074 512.597L136.449 513.378L136.137 513.769ZM580.13 508.639C577.572 510.783 574.982 512.891 572.361 514.963L572.051 514.571L571.431 513.786L571.121 513.394C573.727 511.334 576.302 509.238 578.845 507.106L579.166 507.49L579.808 508.256L580.13 508.639ZM152.135 525.826C149.41 523.891 146.715 521.92 144.051 519.912L144.352 519.513L144.953 518.714L145.254 518.315C147.904 520.311 150.583 522.271 153.293 524.195L153.004 524.602L152.425 525.418L152.135 525.826ZM564.414 521.063C561.738 523.056 559.033 525.013 556.297 526.932L556.01 526.523L555.435 525.704L555.148 525.295C557.868 523.386 560.559 521.441 563.219 519.459L563.518 519.86L564.115 520.662L564.414 521.063ZM164.573 534.258C163.17 533.35 161.775 532.433 160.387 531.506L160.664 531.09L161.22 530.259L161.497 529.843C162.877 530.764 164.265 531.676 165.659 532.579C167.054 533.481 168.454 534.373 169.86 535.255L169.595 535.679L169.063 536.526L168.798 536.949C167.384 536.063 165.975 535.166 164.573 534.258ZM548.015 532.567C546.621 533.486 545.221 534.396 543.813 535.296C542.406 536.196 540.993 537.086 539.574 537.964L539.31 537.539L538.784 536.689L538.521 536.264C539.931 535.39 541.337 534.506 542.736 533.611C544.136 532.716 545.528 531.812 546.913 530.898L547.189 531.315L547.739 532.15L548.015 532.567ZM186.067 547.102C183.143 545.494 180.241 543.843 177.36 542.15L177.613 541.719L178.12 540.856L178.374 540.425C181.238 542.109 184.124 543.751 187.031 545.35L186.79 545.788L186.308 546.664L186.067 547.102ZM530.983 543.117C528.093 544.795 525.182 546.431 522.25 548.023L522.011 547.583L521.534 546.704L521.295 546.265C524.211 544.682 527.105 543.056 529.979 541.388L530.23 541.82L530.732 542.685L530.983 543.117ZM203.888 556.252C200.877 554.814 197.885 553.331 194.912 551.805L195.141 551.36L195.597 550.471L195.826 550.026C198.781 551.543 201.756 553.017 204.75 554.448L204.535 554.899L204.103 555.801L203.888 556.252ZM513.378 552.677C510.398 554.186 507.397 555.653 504.378 557.075L504.165 556.623L503.739 555.718L503.526 555.266C506.528 553.851 509.511 552.394 512.475 550.892L512.701 551.339L513.152 552.231L513.378 552.677ZM222.203 564.369C219.114 563.104 216.042 561.795 212.987 560.442L213.19 559.984L213.595 559.07L213.798 558.613C216.834 559.959 219.889 561.261 222.961 562.518L222.771 562.981L222.392 563.906L222.203 564.369ZM495.256 561.214C492.195 562.551 489.115 563.843 486.019 565.091L485.833 564.627L485.459 563.7L485.272 563.236C488.35 561.995 491.412 560.71 494.456 559.381L494.656 559.84L495.056 560.756L495.256 561.214ZM240.951 571.426C237.794 570.34 234.652 569.208 231.526 568.031L231.703 567.563L232.055 566.628L232.231 566.16C235.339 567.329 238.463 568.455 241.602 569.535L241.439 570.008L241.114 570.953L240.951 571.426ZM476.676 568.702C473.544 569.862 470.396 570.976 467.233 572.045L467.073 571.572L466.752 570.624L466.592 570.151C469.737 569.088 472.867 567.98 475.982 566.827L476.155 567.296L476.502 568.234L476.676 568.702ZM260.072 577.4C256.858 576.496 253.656 575.546 250.469 574.55L250.618 574.073L250.916 573.118L251.066 572.641C254.235 573.631 257.418 574.576 260.614 575.475L260.479 575.956L260.208 576.919L260.072 577.4ZM457.698 575.117C454.505 576.095 451.299 577.028 448.079 577.915L447.946 577.433L447.681 576.469L447.548 575.987C450.749 575.105 453.937 574.178 457.112 573.205L457.258 573.683L457.551 574.639L457.698 575.117ZM279.504 582.273C276.242 581.553 272.991 580.787 269.753 579.975L269.875 579.49L270.118 578.52L270.239 578.035C273.459 578.843 276.691 579.604 279.934 580.32L279.827 580.808L279.611 581.784L279.504 582.273ZM438.385 580.437C435.142 581.231 431.887 581.979 428.622 582.681L428.516 582.192L428.306 581.214L428.201 580.725C431.448 580.028 434.684 579.284 437.909 578.494L438.028 578.98L438.266 579.951L438.385 580.437ZM299.181 586.027C295.883 585.495 292.594 584.916 289.315 584.29L289.409 583.799L289.596 582.817L289.69 582.326C292.95 582.948 296.22 583.523 299.5 584.052L299.42 584.546L299.261 585.533L299.181 586.027ZM418.799 584.645C415.517 585.252 412.225 585.813 408.924 586.327L408.847 585.833L408.693 584.845L408.616 584.351C411.898 583.84 415.171 583.282 418.435 582.678L418.526 583.17L418.708 584.153L418.799 584.645ZM319.041 588.651C315.717 588.308 312.401 587.918 309.093 587.481L309.158 586.985L309.289 585.994L309.354 585.498C312.644 585.933 315.942 586.32 319.246 586.661L319.195 587.159L319.092 588.153L319.041 588.651ZM399.004 587.727C395.694 588.146 392.375 588.518 389.05 588.842L389.001 588.345L388.904 587.349L388.855 586.852C392.162 586.529 395.462 586.159 398.753 585.743L398.816 586.239L398.942 587.231L399.004 587.727ZM339.019 590.136C335.68 589.983 332.347 589.783 329.02 589.536L329.057 589.037L329.131 588.04L329.168 587.542C332.476 587.787 335.791 587.986 339.11 588.138L339.087 588.637L339.041 589.636L339.019 590.136ZM379.066 589.673C375.738 589.902 372.403 590.084 369.064 590.218L369.044 589.718L369.004 588.719L368.984 588.219C372.304 588.086 375.619 587.905 378.929 587.678L378.963 588.177L379.032 589.174L379.066 589.673ZM354.041 590.499C352.37 590.494 350.7 590.478 349.031 590.449L349.04 589.949L349.057 588.949L349.065 588.449C350.725 588.478 352.385 588.494 354.046 588.499C355.707 588.503 357.368 588.496 359.027 588.477L359.033 588.977L359.044 589.977L359.05 590.477C357.381 590.496 355.711 590.503 354.041 590.499ZM621 7C621 9.76142 618.761 12 616 12C613.239 12 611 9.76142 611 7C611 4.23858 613.239 2 616 2C618.761 2 621 4.23858 621 7Z" fill="black"/>
</svg>
