<svg width="20" height="20" viewBox="0 0 20 20" fill="none" xmlns="http://www.w3.org/2000/svg">
<path d="M13.3119 18H5.88788C5.07922 17.9706 4.32593 17.5816 3.83376 16.9393C3.34158 16.297 3.16193 15.4685 3.34388 14.68L3.53588 13.768C3.75671 12.5334 4.81798 11.6262 6.07188 11.6H13.1279C14.3818 11.6262 15.4431 12.5334 15.6639 13.768L15.8559 14.68C16.0378 15.4685 15.8582 16.297 15.366 16.9393C14.8738 17.5816 14.1205 17.9706 13.3119 18Z" fill="#CECECE"/>
<path d="M9.99988 10H9.19988C7.43257 10 5.99988 8.56732 5.99988 6.80001V4.68801C5.99775 3.97446 6.28026 3.28951 6.78482 2.78495C7.28938 2.28039 7.97433 1.99788 8.68788 2.00001H10.5119C11.2254 1.99788 11.9104 2.28039 12.4149 2.78495C12.9195 3.28951 13.202 3.97446 13.1999 4.68801V6.80001C13.1999 7.64871 12.8627 8.46264 12.2626 9.06275C11.6625 9.66287 10.8486 10 9.99988 10Z" fill="#CECECE"/>
</svg>
